<svg xmlns="http://www.w3.org/2000/svg" xml:space="preserve" width="256" height="256"><g style="stroke:none;stroke-width:0;stroke-dasharray:none;stroke-linecap:butt;stroke-linejoin:miter;stroke-miterlimit:10;fill:none;fill-rule:nonzero;opacity:1"><path d="M88.516 50.879H4.156a1.483 1.483 0 1 1 0-2.968h84.36a1.484 1.484 0 0 1 0 2.968zm0 24.616H4.156a1.483 1.483 0 1 1 0-2.968h84.36a1.484 1.484 0 0 1 0 2.968zm0-49.232H35.999a1.483 1.483 0 1 1 0-2.968h52.517a1.484 1.484 0 0 1 0 2.968zm-78.241 8.791C4.609 35.054 0 30.445 0 24.779s4.609-10.275 10.275-10.275 10.275 4.61 10.275 10.275-4.609 10.275-10.275 10.275zm0-17.583c-4.029 0-7.308 3.279-7.308 7.308s3.279 7.308 7.308 7.308 7.308-3.279 7.308-7.308-3.279-7.308-7.308-7.308z" style="stroke:none;stroke-width:1;stroke-dasharray:none;stroke-linecap:butt;stroke-linejoin:miter;stroke-miterlimit:10;fill:#000;fill-rule:nonzero;opacity:1" transform="translate(1.964 1.964) scale(2.8008)"/></g></svg>