<svg xmlns="http://www.w3.org/2000/svg" xml:space="preserve" width="256" height="256"><g style="stroke:none;stroke-width:0;stroke-dasharray:none;stroke-linecap:butt;stroke-linejoin:miter;stroke-miterlimit:10;fill:none;fill-rule:nonzero;opacity:1"><path d="M45 90C20.187 90 0 69.813 0 45S20.187 0 45 0s45 20.187 45 45-20.187 45-45 45zm0-80c-19.299 0-35 15.701-35 35s15.701 35 35 35 35-15.701 35-35-15.701-35-35-35z" style="stroke:none;stroke-width:1;stroke-dasharray:none;stroke-linecap:butt;stroke-linejoin:miter;stroke-miterlimit:10;fill:#fff;fill-rule:nonzero;opacity:1" transform="translate(1.964 1.964) scale(2.8008)"/><path d="M61.806 47.026c1.559-.9 1.559-3.151 0-4.051l-12.91-7.453-12.91-7.453c-1.559-.9-3.509.225-3.509 2.026v29.812c0 1.801 1.949 2.926 3.509 2.026l12.91-7.453 12.91-7.454z" style="stroke:none;stroke-width:1;stroke-dasharray:none;stroke-linecap:butt;stroke-linejoin:miter;stroke-miterlimit:10;fill:#fff;fill-rule:nonzero;opacity:1" transform="translate(1.964 1.964) scale(2.8008)"/></g></svg>