<svg xmlns="http://www.w3.org/2000/svg" xml:space="preserve" width="256" height="256"><g style="stroke:none;stroke-width:0;stroke-dasharray:none;stroke-linecap:butt;stroke-linejoin:miter;stroke-miterlimit:10;fill:none;fill-rule:nonzero;opacity:1"><path d="M82.127 71.258H26.728c-4.341 0-7.873-3.532-7.873-7.873v-10.16a1.5 1.5 0 1 1 3 0v10.16a4.878 4.878 0 0 0 4.873 4.873h55.399A4.88 4.88 0 0 0 87 63.385v-36.77a4.88 4.88 0 0 0-4.873-4.873H26.728a4.878 4.878 0 0 0-4.873 4.873v10.038a1.5 1.5 0 1 1-3 0V26.615c0-4.341 3.532-7.873 7.873-7.873h55.399c4.341 0 7.873 3.532 7.873 7.873v36.77c0 4.341-3.532 7.873-7.873 7.873z" style="stroke:none;stroke-width:1;stroke-dasharray:none;stroke-linecap:butt;stroke-linejoin:miter;stroke-miterlimit:10;fill:#000;fill-rule:nonzero;opacity:1" transform="translate(1.964 1.964) scale(2.8008)"/><path d="m63.732 45 16.726-15.344a1.5 1.5 0 0 0-2.027-2.211L54.427 49.466 30.425 27.445a1.501 1.501 0 0 0-2.029 2.211L45.122 45 28.396 60.345a1.5 1.5 0 1 0 2.029 2.21l16.916-15.52 6.072 5.571a1.495 1.495 0 0 0 2.028 0l6.073-5.571 16.917 15.52a1.496 1.496 0 0 0 2.119-.091 1.5 1.5 0 0 0-.092-2.119L63.732 45zm-38.309 1.5H7.539a1.5 1.5 0 1 1 0-3h17.885a1.5 1.5 0 1 1-.001 3zM12.497 36.016H1.5a1.5 1.5 0 1 1 0-3h10.997a1.5 1.5 0 1 1 0 3zm0 20.968H4.394a1.5 1.5 0 1 1 0-3h8.104a1.5 1.5 0 1 1-.001 3z" style="stroke:none;stroke-width:1;stroke-dasharray:none;stroke-linecap:butt;stroke-linejoin:miter;stroke-miterlimit:10;fill:#000;fill-rule:nonzero;opacity:1" transform="translate(1.964 1.964) scale(2.8008)"/></g></svg>