<svg xmlns="http://www.w3.org/2000/svg" xml:space="preserve" width="256" height="256"><g style="stroke:none;stroke-width:0;stroke-dasharray:none;stroke-linecap:butt;stroke-linejoin:miter;stroke-miterlimit:10;fill:none;fill-rule:nonzero;opacity:1" transform="translate(1.964 1.964) scale(2.8008)"><circle cx="25.516" cy="18.946" r="2.466" style="stroke:none;stroke-width:1;stroke-dasharray:none;stroke-linecap:butt;stroke-linejoin:miter;stroke-miterlimit:10;fill:#f0bc5e;fill-rule:nonzero;opacity:1"/><circle cx="25.516" cy="61.056" r="2.466" style="stroke:none;stroke-width:1;stroke-dasharray:none;stroke-linecap:butt;stroke-linejoin:miter;stroke-miterlimit:10;fill:#f0bc5e;fill-rule:nonzero;opacity:1"/><circle cx="64.476" cy="61.056" r="2.466" style="stroke:none;stroke-width:1;stroke-dasharray:none;stroke-linecap:butt;stroke-linejoin:miter;stroke-miterlimit:10;fill:#f0bc5e;fill-rule:nonzero;opacity:1"/><circle cx="64.476" cy="18.946" r="2.466" style="stroke:none;stroke-width:1;stroke-dasharray:none;stroke-linecap:butt;stroke-linejoin:miter;stroke-miterlimit:10;fill:#f0bc5e;fill-rule:nonzero;opacity:1"/><circle cx="17.466" cy="39.996" r="2.466" style="stroke:none;stroke-width:1;stroke-dasharray:none;stroke-linecap:butt;stroke-linejoin:miter;stroke-miterlimit:10;fill:#f0bc5e;fill-rule:nonzero;opacity:1"/><circle cx="72.536" cy="39.996" r="2.466" style="stroke:none;stroke-width:1;stroke-dasharray:none;stroke-linecap:butt;stroke-linejoin:miter;stroke-miterlimit:10;fill:#f0bc5e;fill-rule:nonzero;opacity:1"/><circle cx="44.996" cy="12.646" r="2.466" style="stroke:none;stroke-width:1;stroke-dasharray:none;stroke-linecap:butt;stroke-linejoin:miter;stroke-miterlimit:10;fill:#f0bc5e;fill-rule:nonzero;opacity:1"/><circle cx="44.996" cy="75.976" r="2.466" style="stroke:none;stroke-width:1;stroke-dasharray:none;stroke-linecap:butt;stroke-linejoin:miter;stroke-miterlimit:10;fill:#f0bc5e;fill-rule:nonzero;opacity:1"/><path d="M45 23.643c-9.034 0-16.357 7.323-16.357 16.357S35.966 56.357 45 56.357 61.357 49.034 61.357 40 54.034 23.643 45 23.643zM45 51.5c-6.351 0-11.5-5.149-11.5-11.5S38.649 28.5 45 28.5 56.5 33.649 56.5 40 51.351 51.5 45 51.5z" style="stroke:none;stroke-width:1;stroke-dasharray:none;stroke-linecap:butt;stroke-linejoin:miter;stroke-miterlimit:10;fill:#f0bc5e;fill-rule:nonzero;opacity:1"/><path d="M45 90a.989.989 0 0 1-.331-.057C23.056 82.377 8.534 61.645 8.534 38.353V9.632a1 1 0 0 1 .88-.993C21.009 7.237 32.867 4.351 44.659.059c.221-.08.463-.08.684 0 11.792 4.291 23.649 7.178 35.245 8.58a1 1 0 0 1 .88.993v28.72c0 23.292-14.522 44.024-36.136 51.591A1 1 0 0 1 45 90zM10.534 10.516v27.836c0 22.324 13.836 42.205 34.466 49.587 20.631-7.382 34.467-27.263 34.467-49.587V10.516C68.113 9.072 56.524 6.231 45 2.064c-11.524 4.167-23.113 7.009-34.466 8.452z" style="stroke:none;stroke-width:1;stroke-dasharray:none;stroke-linecap:butt;stroke-linejoin:miter;stroke-miterlimit:10;fill:#000;fill-rule:nonzero;opacity:1"/><path d="M45 52.5c-6.893 0-12.5-5.607-12.5-12.5S38.107 27.5 45 27.5c2.387 0 4.707.675 6.711 1.953a1.001 1.001 0 0 1-1.074 1.687A10.465 10.465 0 0 0 45 29.5c-5.79 0-10.5 4.71-10.5 10.5S39.21 50.5 45 50.5 55.5 45.79 55.5 40c0-2.447-.86-4.829-2.421-6.708a1 1 0 1 1 1.538-1.278A12.519 12.519 0 0 1 57.5 40c0 6.893-5.607 12.5-12.5 12.5z" style="stroke:none;stroke-width:1;stroke-dasharray:none;stroke-linecap:butt;stroke-linejoin:miter;stroke-miterlimit:10;fill:#000;fill-rule:nonzero;opacity:1"/><path d="M45 57.357c-9.571 0-17.357-7.786-17.357-17.357S35.429 22.643 45 22.643 62.357 30.429 62.357 40 54.571 57.357 45 57.357zm0-32.714c-8.468 0-15.357 6.889-15.357 15.357S36.532 55.357 45 55.357 60.357 48.468 60.357 40 53.468 24.643 45 24.643z" style="stroke:none;stroke-width:1;stroke-dasharray:none;stroke-linecap:butt;stroke-linejoin:miter;stroke-miterlimit:10;fill:#000;fill-rule:nonzero;opacity:1"/><path d="M45.567 46.08c-3.353 0-6.08-2.728-6.08-6.08s2.727-6.08 6.08-6.08a6.07 6.07 0 0 1 4.082 1.573 1 1 0 0 1-1.344 1.483 4.07 4.07 0 0 0-2.738-1.056c-2.25 0-4.08 1.83-4.08 4.08s1.83 4.08 4.08 4.08a4.067 4.067 0 0 0 2.738-1.056 1 1 0 0 1 1.344 1.483 6.07 6.07 0 0 1-4.082 1.573z" style="stroke:none;stroke-width:1;stroke-dasharray:none;stroke-linecap:butt;stroke-linejoin:miter;stroke-miterlimit:10;fill:#000;fill-rule:nonzero;opacity:1"/><path d="M45.567 35.92a1 1 0 0 1-1-1v-1.948a1 1 0 0 1 2 0v1.948a1 1 0 0 1-1 1zm0 12.107a1 1 0 0 1-1-1V45.08a1 1 0 0 1 2 0v1.948a.999.999 0 0 1-1 .999zm-8.693-21.242a1 1 0 0 1-.913-.592l-2.794-6.247h-5.181a1 1 0 0 1 0-2h5.829a1 1 0 0 1 .913.592l3.059 6.838a1 1 0 0 1-.913 1.409zm16.251 0a1 1 0 0 1-.912-1.409l3.06-6.838a1 1 0 0 1 .913-.592h5.829a1 1 0 1 1 0 2h-5.181l-2.795 6.247a1.001 1.001 0 0 1-.914.592zM33.814 62.054h-5.829a1 1 0 1 1 0-2h5.181l2.794-6.246a1 1 0 1 1 1.825.816l-3.059 6.838a.997.997 0 0 1-.912.592zm28.201 0h-5.829a.998.998 0 0 1-.913-.592l-3.06-6.838a1 1 0 1 1 1.826-.816l2.795 6.246h5.181a1 1 0 1 1 0 2z" style="stroke:none;stroke-width:1;stroke-dasharray:none;stroke-linecap:butt;stroke-linejoin:miter;stroke-miterlimit:10;fill:#000;fill-rule:nonzero;opacity:1"/><path d="M25.52 22.412c-1.911 0-3.466-1.555-3.466-3.466s1.555-3.466 3.466-3.466 3.466 1.555 3.466 3.466-1.555 3.466-3.466 3.466zm0-4.932c-.808 0-1.466.658-1.466 1.466s.658 1.466 1.466 1.466 1.466-.658 1.466-1.466-.658-1.466-1.466-1.466zm0 47.04c-1.911 0-3.466-1.555-3.466-3.466s1.555-3.466 3.466-3.466 3.466 1.555 3.466 3.466-1.555 3.466-3.466 3.466zm0-4.932c-.808 0-1.466.657-1.466 1.466s.658 1.466 1.466 1.466 1.466-.657 1.466-1.466-.658-1.466-1.466-1.466zm38.96 4.932c-1.911 0-3.466-1.555-3.466-3.466s1.555-3.466 3.466-3.466 3.466 1.555 3.466 3.466-1.554 3.466-3.466 3.466zm0-4.932a1.467 1.467 0 1 0 .002 2.934 1.467 1.467 0 0 0-.002-2.934zm0-37.176c-1.911 0-3.466-1.555-3.466-3.466s1.555-3.466 3.466-3.466 3.466 1.555 3.466 3.466-1.554 3.466-3.466 3.466zm0-4.932c-.809 0-1.466.658-1.466 1.466s.657 1.466 1.466 1.466 1.466-.658 1.466-1.466-.657-1.466-1.466-1.466zM28.643 41h-8.711a1 1 0 0 1 0-2h8.711a1 1 0 0 1 0 2z" style="stroke:none;stroke-width:1;stroke-dasharray:none;stroke-linecap:butt;stroke-linejoin:miter;stroke-miterlimit:10;fill:#000;fill-rule:nonzero;opacity:1"/><path d="M17.466 43.466C15.555 43.466 14 41.911 14 40s1.555-3.466 3.466-3.466 3.466 1.555 3.466 3.466-1.555 3.466-3.466 3.466zm0-4.932c-.808 0-1.466.658-1.466 1.466s.658 1.466 1.466 1.466 1.466-.658 1.466-1.466-.658-1.466-1.466-1.466zM70.068 41h-8.711a1 1 0 1 1 0-2h8.711a1 1 0 1 1 0 2z" style="stroke:none;stroke-width:1;stroke-dasharray:none;stroke-linecap:butt;stroke-linejoin:miter;stroke-miterlimit:10;fill:#000;fill-rule:nonzero;opacity:1"/><path d="M72.534 43.466c-1.911 0-3.466-1.555-3.466-3.466s1.555-3.466 3.466-3.466S76 38.089 76 40s-1.555 3.466-3.466 3.466zm0-4.932c-.809 0-1.466.658-1.466 1.466s.657 1.466 1.466 1.466S74 40.808 74 40s-.657-1.466-1.466-1.466zM45 74.506a1 1 0 0 1-1-1V56.357a1 1 0 1 1 2 0v17.148a1 1 0 0 1-1 1.001zm0-49.863a1 1 0 0 1-1-1V15.11a1 1 0 0 1 2 0v8.533a1 1 0 0 1-1 1z" style="stroke:none;stroke-width:1;stroke-dasharray:none;stroke-linecap:butt;stroke-linejoin:miter;stroke-miterlimit:10;fill:#000;fill-rule:nonzero;opacity:1"/><path d="M45 16.11c-1.911 0-3.466-1.555-3.466-3.466S43.089 9.178 45 9.178s3.466 1.555 3.466 3.466S46.911 16.11 45 16.11zm0-4.932c-.808 0-1.466.658-1.466 1.466S44.192 14.11 45 14.11s1.466-.658 1.466-1.466-.658-1.466-1.466-1.466zm0 68.26c-1.911 0-3.466-1.555-3.466-3.466s1.555-3.466 3.466-3.466 3.466 1.555 3.466 3.466-1.555 3.466-3.466 3.466zm0-4.932c-.808 0-1.466.657-1.466 1.466s.658 1.466 1.466 1.466 1.466-.657 1.466-1.466-.658-1.466-1.466-1.466z" style="stroke:none;stroke-width:1;stroke-dasharray:none;stroke-linecap:butt;stroke-linejoin:miter;stroke-miterlimit:10;fill:#000;fill-rule:nonzero;opacity:1"/></g></svg>