<svg xmlns="http://www.w3.org/2000/svg" xml:space="preserve" width="256" height="256"><g style="stroke:none;stroke-width:0;stroke-dasharray:none;stroke-linecap:butt;stroke-linejoin:miter;stroke-miterlimit:10;fill:none;fill-rule:nonzero;opacity:1" transform="translate(1.964 1.964) scale(2.8008)"><circle cx="12.951" cy="65.691" r="3.801" style="stroke:none;stroke-width:1;stroke-dasharray:none;stroke-linecap:butt;stroke-linejoin:miter;stroke-miterlimit:10;fill:#f0bc5e;fill-rule:nonzero;opacity:1"/><circle cx="29.001" cy="48.721" r="3.801" style="stroke:none;stroke-width:1;stroke-dasharray:none;stroke-linecap:butt;stroke-linejoin:miter;stroke-miterlimit:10;fill:#f0bc5e;fill-rule:nonzero;opacity:1"/><circle cx="44.801" cy="67.181" r="3.801" style="stroke:none;stroke-width:1;stroke-dasharray:none;stroke-linecap:butt;stroke-linejoin:miter;stroke-miterlimit:10;fill:#f0bc5e;fill-rule:nonzero;opacity:1"/><circle cx="51.821" cy="41.531" r="3.801" style="stroke:none;stroke-width:1;stroke-dasharray:none;stroke-linecap:butt;stroke-linejoin:miter;stroke-miterlimit:10;fill:#f0bc5e;fill-rule:nonzero;opacity:1"/><circle cx="67.811" cy="58.801" r="3.801" style="stroke:none;stroke-width:1;stroke-dasharray:none;stroke-linecap:butt;stroke-linejoin:miter;stroke-miterlimit:10;fill:#f0bc5e;fill-rule:nonzero;opacity:1"/><path d="M72.598 29.022C72.598 13.78 60.242 1.423 45 1.423S17.402 13.78 17.402 29.022h6.34C23.742 17.281 33.26 7.764 45 7.764s21.258 9.518 21.258 21.258h6.34z" style="stroke:none;stroke-width:1;stroke-dasharray:none;stroke-linecap:butt;stroke-linejoin:miter;stroke-miterlimit:10;fill:#f0bc5e;fill-rule:nonzero;opacity:1"/><path d="M78.257 89.576H7.542C3.383 89.576 0 86.193 0 82.035V35.563c0-4.158 3.383-7.541 7.542-7.541h70.715c4.158 0 7.541 3.383 7.541 7.541v14.618a1 1 0 1 1-2 0V35.563a5.547 5.547 0 0 0-5.541-5.541H7.542A5.548 5.548 0 0 0 2 35.563v46.472a5.547 5.547 0 0 0 5.542 5.541h70.715a5.546 5.546 0 0 0 5.541-5.541V67.418a1 1 0 1 1 2 0v14.617c0 4.158-3.383 7.541-7.541 7.541z" style="stroke:none;stroke-width:1;stroke-dasharray:none;stroke-linecap:butt;stroke-linejoin:miter;stroke-miterlimit:10;fill:#000;fill-rule:nonzero;opacity:1"/><path d="M86.32 68.418H64.237c-5.304 0-9.618-4.315-9.618-9.619s4.314-9.618 9.618-9.618H86.32c2.029 0 3.68 1.65 3.68 3.68v11.878a3.683 3.683 0 0 1-3.68 3.679zM64.237 51.181c-4.2 0-7.618 3.418-7.618 7.618 0 4.201 3.418 7.619 7.618 7.619H86.32c.926 0 1.68-.754 1.68-1.68V52.86c0-.926-.754-1.68-1.68-1.68H64.237zM12.952 62.892a1 1 0 0 1-1-1v-32.87a1 1 0 0 1 2 0v32.87a1 1 0 0 1-1 1zM44.797 88.45a1 1 0 0 1-1-1V70.984a1 1 0 1 1 2 0V87.45a1 1 0 0 1-1 1z" style="stroke:none;stroke-width:1;stroke-dasharray:none;stroke-linecap:butt;stroke-linejoin:miter;stroke-miterlimit:10;fill:#000;fill-rule:nonzero;opacity:1"/><path d="M12.952 70.493c-2.647 0-4.8-2.153-4.8-4.801s2.153-4.801 4.8-4.801 4.801 2.153 4.801 4.801-2.154 4.801-4.801 4.801zm0-7.601c-1.544 0-2.8 1.257-2.8 2.801s1.256 2.801 2.8 2.801c1.544 0 2.801-1.257 2.801-2.801s-1.257-2.801-2.801-2.801zm16.052 26.684a1 1 0 0 1-1-1V52.522a1 1 0 1 1 2 0v36.054a1 1 0 0 1-1 1z" style="stroke:none;stroke-width:1;stroke-dasharray:none;stroke-linecap:butt;stroke-linejoin:miter;stroke-miterlimit:10;fill:#000;fill-rule:nonzero;opacity:1"/><path d="M29.004 53.522a4.806 4.806 0 0 1-4.801-4.801c0-2.646 2.154-4.8 4.801-4.8s4.8 2.154 4.8 4.8a4.805 4.805 0 0 1-4.8 4.801zm0-7.601c-1.544 0-2.801 1.256-2.801 2.8s1.256 2.801 2.801 2.801c1.544 0 2.8-1.257 2.8-2.801s-1.256-2.8-2.8-2.8zm15.793 26.063a4.805 4.805 0 0 1-4.8-4.801c0-2.646 2.153-4.8 4.8-4.8a4.806 4.806 0 0 1 4.801 4.8 4.806 4.806 0 0 1-4.801 4.801zm0-7.6c-1.544 0-2.8 1.256-2.8 2.8s1.256 2.801 2.8 2.801 2.801-1.257 2.801-2.801-1.257-2.8-2.801-2.8zM12.952 89.576a1 1 0 0 1-1-1V81.85a2.925 2.925 0 0 0-2.921-2.921l-7.963.194C.492 79.107.057 78.7.044 78.147a1 1 0 0 1 .975-1.024l7.988-.194c2.738 0 4.945 2.207 4.945 4.921v6.726a1 1 0 0 1-1 1zm38.866-50.845a1 1 0 0 1-1-1v-8.709a1 1 0 1 1 2 0v8.709a1 1 0 0 1-1 1z" style="stroke:none;stroke-width:1;stroke-dasharray:none;stroke-linecap:butt;stroke-linejoin:miter;stroke-miterlimit:10;fill:#000;fill-rule:nonzero;opacity:1"/><path d="M51.818 46.332c-2.647 0-4.801-2.153-4.801-4.8s2.153-4.8 4.801-4.8 4.801 2.153 4.801 4.8-2.153 4.8-4.801 4.8zm0-7.601a2.804 2.804 0 0 0-2.801 2.8c0 1.544 1.257 2.801 2.801 2.801s2.801-1.256 2.801-2.801c0-1.543-1.257-2.8-2.801-2.8zM67.807 63.6a4.806 4.806 0 0 1-4.801-4.801c0-2.646 2.153-4.8 4.801-4.8s4.801 2.153 4.801 4.8a4.807 4.807 0 0 1-4.801 4.801zm0-7.601c-1.544 0-2.801 1.256-2.801 2.8s1.257 2.801 2.801 2.801 2.801-1.257 2.801-2.801-1.257-2.8-2.801-2.8zM23.742 30.022a1 1 0 0 1-1-1c0-12.273 9.985-22.259 22.258-22.259 4.249 0 8.382 1.202 11.949 3.477a1 1 0 0 1-1.074 1.687A20.191 20.191 0 0 0 45 8.763c-11.17 0-20.258 9.088-20.258 20.259a1 1 0 0 1-1 1zm42.517 0a1 1 0 0 1-1-1c0-4.721-1.659-9.316-4.672-12.941a1 1 0 1 1 1.537-1.278 22.281 22.281 0 0 1 5.135 14.22 1 1 0 0 1-1 .999z" style="stroke:none;stroke-width:1;stroke-dasharray:none;stroke-linecap:butt;stroke-linejoin:miter;stroke-miterlimit:10;fill:#000;fill-rule:nonzero;opacity:1"/><path d="M72.599 30.022a1 1 0 0 1-1-1C71.599 14.355 59.667 2.423 45 2.423S18.402 14.355 18.402 29.022a1 1 0 0 1-2 0C16.402 13.252 29.231.423 45 .423c15.77 0 28.599 12.829 28.599 28.599a1 1 0 0 1-1 1z" style="stroke:none;stroke-width:1;stroke-dasharray:none;stroke-linecap:butt;stroke-linejoin:miter;stroke-miterlimit:10;fill:#000;fill-rule:nonzero;opacity:1"/><path d="M34.794 30.022a1 1 0 0 1-1-1c0-6.525 5.309-11.834 11.833-11.834 2.943 0 5.765 1.088 7.943 3.063a1 1 0 0 1-1.344 1.481 9.804 9.804 0 0 0-6.6-2.544c-5.422 0-9.833 4.412-9.833 9.834a.998.998 0 0 1-.999 1z" style="stroke:none;stroke-width:1;stroke-dasharray:none;stroke-linecap:butt;stroke-linejoin:miter;stroke-miterlimit:10;fill:#000;fill-rule:nonzero;opacity:1"/><path d="M45.628 19.188a1 1 0 0 1-1-1v-4.155a1 1 0 0 1 2 0v4.155a1 1 0 0 1-1 1z" style="stroke:none;stroke-width:1;stroke-dasharray:none;stroke-linecap:butt;stroke-linejoin:miter;stroke-miterlimit:10;fill:#000;fill-rule:nonzero;opacity:1"/></g></svg>