<svg xmlns="http://www.w3.org/2000/svg" xml:space="preserve" width="256" height="256"><g style="stroke:none;stroke-width:0;stroke-dasharray:none;stroke-linecap:butt;stroke-linejoin:miter;stroke-miterlimit:10;fill:none;fill-rule:nonzero;opacity:1" transform="translate(1.964 1.964) scale(2.8008)"><path d="M54.48 48.82h27.95l3.09-17.29H50.4z" style="stroke:none;stroke-width:1;stroke-dasharray:none;stroke-linecap:butt;stroke-linejoin:miter;stroke-miterlimit:10;fill:#f0bc5e;fill-rule:nonzero;opacity:1"/><circle cx="56.82" cy="60.31" r="2.47" style="stroke:none;stroke-width:1;stroke-dasharray:none;stroke-linecap:butt;stroke-linejoin:miter;stroke-miterlimit:10;fill:#f0bc5e;fill-rule:nonzero;opacity:1"/><circle cx="80.82" cy="60.31" r="2.47" style="stroke:none;stroke-width:1;stroke-dasharray:none;stroke-linecap:butt;stroke-linejoin:miter;stroke-miterlimit:10;fill:#f0bc5e;fill-rule:nonzero;opacity:1"/><path d="M21.381 23.641c-9.333 0-16.9 7.566-16.9 16.9 0 9.333 7.566 16.9 16.9 16.9 9.333 0 16.9-7.566 16.9-16.9s-7.566-16.9-16.9-16.9zm0 28.62c-6.473 0-11.72-5.247-11.72-11.72s5.247-11.72 11.72-11.72 11.72 5.247 11.72 11.72-5.247 11.72-11.72 11.72z" style="stroke:none;stroke-width:1;stroke-dasharray:none;stroke-linecap:butt;stroke-linejoin:miter;stroke-miterlimit:10;fill:#f0bc5e;fill-rule:nonzero;opacity:1"/><path d="M65.238 90H26.856a6.483 6.483 0 0 1-6.475-6.476V57.44a1 1 0 1 1 2 0v26.084A4.48 4.48 0 0 0 26.856 88h38.382a4.48 4.48 0 0 0 4.475-4.476V53.822a1 1 0 1 1 2 0v29.702A6.482 6.482 0 0 1 65.238 90zm5.475-57.466a1 1 0 0 1-1-1V6.476A4.48 4.48 0 0 0 65.238 2H26.856a4.48 4.48 0 0 0-4.475 4.476v17.166a1 1 0 0 1-2 0V6.476A6.483 6.483 0 0 1 26.856 0h38.382a6.483 6.483 0 0 1 6.475 6.476v25.058a1 1 0 0 1-1 1z" style="stroke:none;stroke-width:1;stroke-dasharray:none;stroke-linecap:butt;stroke-linejoin:miter;stroke-miterlimit:10;fill:#000;fill-rule:nonzero;opacity:1"/><path d="M54.814 8.561H37.28c-4.169 0-7.561-3.392-7.561-7.561a1 1 0 0 1 1-1h30.656a1 1 0 0 1 1 1c0 4.169-3.392 7.561-7.561 7.561zM31.809 2a5.572 5.572 0 0 0 5.471 4.561h17.535A5.57 5.57 0 0 0 60.286 2H31.809zM21.381 53.261c-7.014 0-12.72-5.706-12.72-12.72s5.706-12.72 12.72-12.72c2.429 0 4.79.687 6.829 1.987a1 1 0 1 1-1.075 1.687 10.68 10.68 0 0 0-5.753-1.673c-5.911 0-10.72 4.809-10.72 10.72 0 5.912 4.809 10.72 10.72 10.72 5.911 0 10.72-4.809 10.72-10.72 0-2.498-.878-4.93-2.472-6.848a1 1 0 1 1 1.538-1.278 12.736 12.736 0 0 1 2.934 8.126c-.001 7.013-5.707 12.719-12.721 12.719z" style="stroke:none;stroke-width:1;stroke-dasharray:none;stroke-linecap:butt;stroke-linejoin:miter;stroke-miterlimit:10;fill:#000;fill-rule:nonzero;opacity:1"/><path d="M21.381 58.44c-9.87 0-17.9-8.03-17.9-17.9s8.03-17.899 17.9-17.899S39.28 30.671 39.28 40.54s-8.029 17.9-17.899 17.9zm0-33.799c-8.767 0-15.9 7.132-15.9 15.899s7.133 15.9 15.9 15.9 15.899-7.133 15.899-15.9-7.132-15.899-15.899-15.899z" style="stroke:none;stroke-width:1;stroke-dasharray:none;stroke-linecap:butt;stroke-linejoin:miter;stroke-miterlimit:10;fill:#000;fill-rule:nonzero;opacity:1"/><path d="M21.959 46.718c-3.406 0-6.177-2.771-6.177-6.177s2.771-6.177 6.177-6.177c1.536 0 3.008.567 4.146 1.598a1.002 1.002 0 0 1-1.343 1.483 4.17 4.17 0 0 0-2.804-1.081c-2.303 0-4.177 1.874-4.177 4.177s1.874 4.177 4.177 4.177a4.168 4.168 0 0 0 2.804-1.081 1 1 0 0 1 1.343 1.483 6.168 6.168 0 0 1-4.146 1.598z" style="stroke:none;stroke-width:1;stroke-dasharray:none;stroke-linecap:butt;stroke-linejoin:miter;stroke-miterlimit:10;fill:#000;fill-rule:nonzero;opacity:1"/><path d="M21.959 36.364a1 1 0 0 1-1-1v-1.985a1 1 0 0 1 2 0v1.985a1 1 0 0 1-1 1zm0 12.339a1 1 0 0 1-1-1v-1.986a1 1 0 0 1 2 0v1.986a1 1 0 0 1-1 1zm48.754 31.318H21.381a1 1 0 1 1 0-2h49.332a1 1 0 1 1 0 2zM50.907 85.01h-9.72a1 1 0 1 1 0-2h9.72a1 1 0 1 1 0 2zm30.326-30.188H55.656c-.464 0-.867-.319-.974-.771l-6.921-29.355H42.68a1 1 0 0 1 0-2h5.873c.464 0 .867.319.974.771l6.921 29.355h24.785a1 1 0 1 1 0 2z" style="stroke:none;stroke-width:1;stroke-dasharray:none;stroke-linecap:butt;stroke-linejoin:miter;stroke-miterlimit:10;fill:#000;fill-rule:nonzero;opacity:1"/><path d="M82.431 49.822H54.478c-.464 0-.867-.319-.974-.771l-4.076-17.289a.998.998 0 0 1 .973-1.229h35.117a1 1 0 0 1 .985 1.176l-3.088 17.289a1 1 0 0 1-.984.824zm-27.161-2h26.324l2.73-15.289H51.665l3.605 15.289zm1.552 15.955a3.474 3.474 0 0 1-3.47-3.47c0-1.914 1.557-3.471 3.47-3.471s3.47 1.557 3.47 3.471a3.474 3.474 0 0 1-3.47 3.47zm0-4.94a1.471 1.471 0 1 0 1.47 1.471c0-.811-.659-1.471-1.47-1.471zm24 4.94a3.474 3.474 0 0 1-3.47-3.47c0-1.914 1.557-3.471 3.47-3.471s3.47 1.557 3.47 3.471a3.474 3.474 0 0 1-3.47 3.47zm0-4.94a1.471 1.471 0 1 0 1.47 1.471c0-.811-.659-1.471-1.47-1.471z" style="stroke:none;stroke-width:1;stroke-dasharray:none;stroke-linecap:butt;stroke-linejoin:miter;stroke-miterlimit:10;fill:#000;fill-rule:nonzero;opacity:1"/></g></svg>