<svg xmlns="http://www.w3.org/2000/svg" xml:space="preserve" width="256" height="256"><g style="stroke:none;stroke-width:0;stroke-dasharray:none;stroke-linecap:butt;stroke-linejoin:miter;stroke-miterlimit:10;fill:none;fill-rule:nonzero;opacity:1"><path d="M45 22.696c-9.557 0-17.304 7.747-17.304 17.304S35.443 57.304 45 57.304 62.304 49.557 62.304 40 54.557 22.696 45 22.696zM45 52c-6.627 0-12-5.373-12-12s5.373-12 12-12 12 5.373 12 12-5.373 12-12 12z" style="stroke:none;stroke-width:1;stroke-dasharray:none;stroke-linecap:butt;stroke-linejoin:miter;stroke-miterlimit:10;fill:#f0bc5e;fill-rule:nonzero;opacity:1" transform="translate(1.964 1.964) scale(2.8008)"/><path d="M83.061 67.687H7.407a1 1 0 0 1-1-1V16.184a5.331 5.331 0 0 1 5.325-5.325h67.003a5.33 5.33 0 0 1 5.325 5.325v50.502a1 1 0 0 1-.999 1.001zm-74.654-2H82.06V16.184a3.329 3.329 0 0 0-3.325-3.325H11.732a3.33 3.33 0 0 0-3.325 3.325v49.503z" style="stroke:none;stroke-width:1;stroke-dasharray:none;stroke-linecap:butt;stroke-linejoin:miter;stroke-miterlimit:10;fill:#000;fill-rule:nonzero;opacity:1" transform="translate(1.964 1.964) scale(2.8008)"/><path d="M80.234 79.141H9.766C4.381 79.141 0 74.76 0 69.374v-2.688a1 1 0 0 1 1-1h88a1 1 0 0 1 1 1v2.688c0 5.386-4.381 9.767-9.766 9.767zM2 67.687v1.688c0 4.282 3.484 7.767 7.766 7.767h70.468c4.282 0 7.766-3.484 7.766-7.767v-1.688H2z" style="stroke:none;stroke-width:1;stroke-dasharray:none;stroke-linecap:butt;stroke-linejoin:miter;stroke-miterlimit:10;fill:#000;fill-rule:nonzero;opacity:1" transform="translate(1.964 1.964) scale(2.8008)"/><path d="M48.992 73.413H38.239a1 1 0 1 1 0-2h10.753a1 1 0 1 1 0 2zM45 53c-7.168 0-13-5.832-13-13s5.832-13 13-13c2.482 0 4.896.702 6.979 2.031a1 1 0 0 1-1.076 1.687A10.947 10.947 0 0 0 45 29c-6.065 0-11 4.935-11 11s4.935 11 11 11 11-4.935 11-11c0-2.564-.9-5.059-2.536-7.027a.999.999 0 1 1 1.537-1.278A13.008 13.008 0 0 1 58 40c0 7.168-5.832 13-13 13z" style="stroke:none;stroke-width:1;stroke-dasharray:none;stroke-linecap:butt;stroke-linejoin:miter;stroke-miterlimit:10;fill:#000;fill-rule:nonzero;opacity:1" transform="translate(1.964 1.964) scale(2.8008)"/><path d="M45 58.304c-10.093 0-18.304-8.211-18.304-18.304S34.907 21.696 45 21.696 63.304 29.907 63.304 40 55.093 58.304 45 58.304zm0-34.608c-8.99 0-16.304 7.314-16.304 16.304 0 8.99 7.314 16.304 16.304 16.304 8.99 0 16.304-7.313 16.304-16.304 0-8.99-7.314-16.304-16.304-16.304z" style="stroke:none;stroke-width:1;stroke-dasharray:none;stroke-linecap:butt;stroke-linejoin:miter;stroke-miterlimit:10;fill:#000;fill-rule:nonzero;opacity:1" transform="translate(1.964 1.964) scale(2.8008)"/><path d="M45.592 46.3c-3.474 0-6.3-2.826-6.3-6.3s2.826-6.3 6.3-6.3a6.29 6.29 0 0 1 4.23 1.63 1 1 0 0 1-1.344 1.483 4.289 4.289 0 0 0-2.886-1.112c-2.371 0-4.3 1.929-4.3 4.3s1.929 4.3 4.3 4.3c1.07 0 2.095-.395 2.886-1.112a1 1 0 0 1 1.344 1.482 6.291 6.291 0 0 1-4.23 1.629z" style="stroke:none;stroke-width:1;stroke-dasharray:none;stroke-linecap:butt;stroke-linejoin:miter;stroke-miterlimit:10;fill:#000;fill-rule:nonzero;opacity:1" transform="translate(1.964 1.964) scale(2.8008)"/><path d="M45.592 35.7a1 1 0 0 1-1-1v-2.033a1 1 0 0 1 2 0V34.7a1 1 0 0 1-1 1zm0 12.633a1 1 0 0 1-1-1V45.3a1 1 0 0 1 2 0v2.033a1 1 0 0 1-1 1zm31.452-24.637H59.956a1 1 0 1 1 0-2h17.088a1 1 0 1 1 0 2z" style="stroke:none;stroke-width:1;stroke-dasharray:none;stroke-linecap:butt;stroke-linejoin:miter;stroke-miterlimit:10;fill:#000;fill-rule:nonzero;opacity:1" transform="translate(1.964 1.964) scale(2.8008)"/><path d="M73.237 27.503a.999.999 0 0 1-.707-1.707l3.1-3.1-3.1-3.1a.999.999 0 1 1 1.414-1.414l3.807 3.807a.999.999 0 0 1 0 1.414l-3.807 3.807a.993.993 0 0 1-.707.293zM30.044 58.304H12.956a1 1 0 1 1 0-2h17.088a1 1 0 1 1 0 2z" style="stroke:none;stroke-width:1;stroke-dasharray:none;stroke-linecap:butt;stroke-linejoin:miter;stroke-miterlimit:10;fill:#000;fill-rule:nonzero;opacity:1" transform="translate(1.964 1.964) scale(2.8008)"/><path d="M16.763 62.11a.997.997 0 0 1-.707-.293l-3.807-3.807a.999.999 0 0 1 0-1.414l3.807-3.807a.999.999 0 1 1 1.414 1.414l-3.1 3.1 3.1 3.1a.999.999 0 0 1-.707 1.707z" style="stroke:none;stroke-width:1;stroke-dasharray:none;stroke-linecap:butt;stroke-linejoin:miter;stroke-miterlimit:10;fill:#000;fill-rule:nonzero;opacity:1" transform="translate(1.964 1.964) scale(2.8008)"/></g></svg>