<svg xmlns="http://www.w3.org/2000/svg" xml:space="preserve" width="256" height="256"><g style="stroke:none;stroke-width:0;stroke-dasharray:none;stroke-linecap:butt;stroke-linejoin:miter;stroke-miterlimit:10;fill:none;fill-rule:nonzero;opacity:1" transform="translate(1.964 1.964) scale(2.8008)"><rect width="48.47" height="16.11" x="30.71" y="7.52" rx="0" ry="0" style="stroke:none;stroke-width:1;stroke-dasharray:none;stroke-linecap:butt;stroke-linejoin:miter;stroke-miterlimit:10;fill:#f0bc5e;fill-rule:nonzero;opacity:1"/><rect width="10.38" height="31.39" x="69" y="50.81" rx="0" ry="0" style="stroke:none;stroke-width:1;stroke-dasharray:none;stroke-linecap:butt;stroke-linejoin:miter;stroke-miterlimit:10;fill:#f0bc5e;fill-rule:nonzero;opacity:1"/><path d="M24.183 49.243c-10.979 0-19.878 8.9-19.878 19.878C4.304 80.1 13.204 89 24.183 89c10.979 0 19.878-8.9 19.878-19.878 0-10.979-8.9-19.879-19.878-19.879zm0 34.379c-8.008 0-14.5-6.492-14.5-14.5s6.492-14.5 14.5-14.5 14.5 6.492 14.5 14.5-6.492 14.5-14.5 14.5z" style="stroke:none;stroke-width:1;stroke-dasharray:none;stroke-linecap:butt;stroke-linejoin:miter;stroke-miterlimit:10;fill:#f0bc5e;fill-rule:nonzero;opacity:1"/><path d="M85.695 90H24.183a1 1 0 1 1 0-2h60.513V2H25.183v47.243a1 1 0 1 1-2 0V1a1 1 0 0 1 1-1h61.513a1 1 0 0 1 1 1v88a1 1 0 0 1-1.001 1z" style="stroke:none;stroke-width:1;stroke-dasharray:none;stroke-linecap:butt;stroke-linejoin:miter;stroke-miterlimit:10;fill:#000;fill-rule:nonzero;opacity:1"/><path d="M79.173 24.635H30.706a1 1 0 0 1-1-1V7.523a1 1 0 0 1 1-1h48.467a1 1 0 0 1 1 1v16.112a1 1 0 0 1-1 1zm-47.467-2h46.467V8.523H31.706v14.112zm9.375 22.03H30.706a1 1 0 0 1-1-1V31.541a1 1 0 0 1 1-1h10.375a1 1 0 0 1 1 1v12.125a1 1 0 0 1-1 .999zm-9.375-2h8.375V32.541h-8.375v10.124zm28.421 2H49.752a1 1 0 0 1-1-1V31.541a1 1 0 0 1 1-1h10.375a1 1 0 0 1 1 1v12.125a1 1 0 0 1-1 .999zm-9.375-2h8.375V32.541h-8.375v10.124zm28.626 2H69.003a1 1 0 0 1-1-1V31.541a1 1 0 0 1 1-1h10.375a1 1 0 0 1 1 1v12.125a1 1 0 0 1-1 .999zm-9.375-2h8.375V32.541h-8.375v10.124zm-9.876 21.271H49.752a1 1 0 0 1-1-1V50.812a1 1 0 0 1 1-1h10.375a1 1 0 0 1 1 1v12.124a1 1 0 0 1-1 1zm-9.375-2h8.375V51.812h-8.375v10.124zm9.375 21.27H49.752a1 1 0 0 1-1-1V70.082a1 1 0 0 1 1-1h10.375a1 1 0 0 1 1 1v12.124a1 1 0 0 1-1 1zm-9.375-2h8.375V71.082h-8.375v10.124zm28.626 2H69.003a1 1 0 0 1-1-1V50.812a1 1 0 0 1 1-1h10.375a1 1 0 0 1 1 1v31.395a.999.999 0 0 1-1 .999zm-9.375-2h8.375V51.812h-8.375v29.394zm-45.82 3.415c-8.547 0-15.5-6.953-15.5-15.5s6.953-15.5 15.5-15.5c2.959 0 5.836.837 8.322 2.422a.999.999 0 0 1 .306 1.38.997.997 0 0 1-1.381.306 13.455 13.455 0 0 0-7.247-2.107c-7.444 0-13.5 6.056-13.5 13.5s6.056 13.5 13.5 13.5 13.5-6.056 13.5-13.5c0-3.146-1.105-6.208-3.113-8.623a1 1 0 0 1 1.538-1.279 15.525 15.525 0 0 1 3.575 9.902c0 8.546-6.954 15.499-15.5 15.499z" style="stroke:none;stroke-width:1;stroke-dasharray:none;stroke-linecap:butt;stroke-linejoin:miter;stroke-miterlimit:10;fill:#000;fill-rule:nonzero;opacity:1"/><path d="M24.183 90C12.67 90 3.304 80.634 3.304 69.121c0-11.512 9.366-20.878 20.878-20.878S45.06 57.609 45.06 69.121C45.061 80.634 35.695 90 24.183 90zm0-39.757c-10.41 0-18.878 8.469-18.878 18.878C5.304 79.531 13.773 88 24.183 88s18.878-8.469 18.878-18.879c0-10.409-8.469-18.878-18.878-18.878z" style="stroke:none;stroke-width:1;stroke-dasharray:none;stroke-linecap:butt;stroke-linejoin:miter;stroke-miterlimit:10;fill:#000;fill-rule:nonzero;opacity:1"/><path d="M24.466 76.627c-4.139 0-7.505-3.367-7.505-7.506s3.367-7.505 7.505-7.505c1.866 0 3.655.689 5.038 1.942.409.371.44 1.003.07 1.413a1.002 1.002 0 0 1-1.413.069 5.491 5.491 0 0 0-3.695-1.425 5.511 5.511 0 0 0-5.505 5.505 5.512 5.512 0 0 0 5.505 5.506 5.491 5.491 0 0 0 3.695-1.425 1 1 0 1 1 1.343 1.482 7.48 7.48 0 0 1-5.038 1.944z" style="stroke:none;stroke-width:1;stroke-dasharray:none;stroke-linecap:butt;stroke-linejoin:miter;stroke-miterlimit:10;fill:#000;fill-rule:nonzero;opacity:1"/><path d="M24.466 63.616a1 1 0 0 1-1-1v-2.495a1 1 0 1 1 2 0v2.495a1 1 0 0 1-1 1zm0 15.505a1 1 0 0 1-1-1v-2.494a1 1 0 1 1 2 0v2.494a1 1 0 0 1-1 1z" style="stroke:none;stroke-width:1;stroke-dasharray:none;stroke-linecap:butt;stroke-linejoin:miter;stroke-miterlimit:10;fill:#000;fill-rule:nonzero;opacity:1"/></g></svg>