<svg xmlns="http://www.w3.org/2000/svg" xml:space="preserve" width="256" height="256"><g style="stroke:none;stroke-width:0;stroke-dasharray:none;stroke-linecap:butt;stroke-linejoin:miter;stroke-miterlimit:10;fill:none;fill-rule:nonzero;opacity:1" transform="translate(1.964 1.964) scale(2.8008)"><rect width="53.66" height="6.56" x="20.62" y="75.88" rx="0" ry="0" style="stroke:none;stroke-width:1;stroke-dasharray:none;stroke-linecap:butt;stroke-linejoin:miter;stroke-miterlimit:10;fill:#f0bc5e;fill-rule:nonzero;opacity:1"/><rect width="53.66" height="6.56" x="18.3" y="62.76" rx="0" ry="0" style="stroke:none;stroke-width:1;stroke-dasharray:none;stroke-linecap:butt;stroke-linejoin:miter;stroke-miterlimit:10;fill:#f0bc5e;fill-rule:nonzero;opacity:1"/><path d="M45 1C29.758 1 17.402 13.356 17.402 28.598S29.758 56.196 45 56.196 72.598 43.84 72.598 28.598 60.242 1 45 1zm0 48.857c-11.741 0-21.258-9.518-21.258-21.259C23.742 16.858 33.259 7.34 45 7.34s21.258 9.518 21.258 21.258c0 11.741-9.517 21.259-21.258 21.259z" style="stroke:none;stroke-width:1;stroke-dasharray:none;stroke-linecap:butt;stroke-linejoin:miter;stroke-miterlimit:10;fill:#f0bc5e;fill-rule:nonzero;opacity:1"/><path d="M74.279 83.439H20.623a1 1 0 0 1-1-1v-6.561a1 1 0 0 1 1-1H74.28a1 1 0 0 1 1 1v6.561a1 1 0 0 1-1.001 1zm-52.656-2H73.28v-4.561H21.623v4.561z" style="stroke:none;stroke-width:1;stroke-dasharray:none;stroke-linecap:butt;stroke-linejoin:miter;stroke-miterlimit:10;fill:#000;fill-rule:nonzero;opacity:1"/><path d="M70.6 90H16.943a1 1 0 0 1-1-1v-6.561a1 1 0 0 1 1-1H70.6a1 1 0 0 1 1 1V89a1 1 0 0 1-1 1zm-52.657-2H69.6v-4.561H17.943V88zm51.434-11.121H15.721a1 1 0 0 1-1-1v-6.561a1 1 0 0 1 1-1h53.656a1 1 0 0 1 1 1v6.561a1 1 0 0 1-1 1zm-52.656-2h51.656v-4.561H16.721v4.561z" style="stroke:none;stroke-width:1;stroke-dasharray:none;stroke-linecap:butt;stroke-linejoin:miter;stroke-miterlimit:10;fill:#000;fill-rule:nonzero;opacity:1"/><path d="M71.957 70.318H18.301a1 1 0 0 1-1-1v-6.561a1 1 0 0 1 1-1h53.656a1 1 0 0 1 1 1v6.561a1 1 0 0 1-1 1zm-52.656-2h51.656v-4.561H19.301v4.561z" style="stroke:none;stroke-width:1;stroke-dasharray:none;stroke-linecap:butt;stroke-linejoin:miter;stroke-miterlimit:10;fill:#000;fill-rule:nonzero;opacity:1"/><path d="M69.377 63.758H15.721a1 1 0 0 1-1-1v-6.562a1 1 0 0 1 1-1h53.656a1 1 0 0 1 1 1v6.562a1 1 0 0 1-1 1zm-52.656-2h51.656v-4.562H16.721v4.562zM45 50.856c-12.273 0-22.258-9.985-22.258-22.258S32.727 6.34 45 6.34c4.25 0 8.383 1.202 11.95 3.477a1 1 0 0 1-1.076 1.687A20.18 20.18 0 0 0 45 8.34c-11.17 0-20.258 9.088-20.258 20.258S33.83 48.856 45 48.856c11.171 0 20.259-9.088 20.259-20.258 0-4.72-1.659-9.316-4.672-12.941a1 1 0 1 1 1.537-1.278 22.28 22.28 0 0 1 5.135 14.219c0 12.274-9.986 22.258-22.259 22.258z" style="stroke:none;stroke-width:1;stroke-dasharray:none;stroke-linecap:butt;stroke-linejoin:miter;stroke-miterlimit:10;fill:#000;fill-rule:nonzero;opacity:1"/><path d="M45 57.196c-15.769 0-28.598-12.829-28.598-28.598S29.231 0 45 0c15.77 0 28.599 12.829 28.599 28.598S60.77 57.196 45 57.196zM45 2C30.333 2 18.402 13.932 18.402 28.598S30.333 55.196 45 55.196s26.599-11.932 26.599-26.598S59.667 2 45 2z" style="stroke:none;stroke-width:1;stroke-dasharray:none;stroke-linecap:butt;stroke-linejoin:miter;stroke-miterlimit:10;fill:#000;fill-rule:nonzero;opacity:1"/><path d="M45.628 40.432c-6.525 0-11.833-5.309-11.833-11.834s5.309-11.833 11.833-11.833c2.943 0 5.764 1.087 7.943 3.062a1 1 0 0 1-1.344 1.483 9.806 9.806 0 0 0-6.6-2.544c-5.422 0-9.833 4.411-9.833 9.833s4.411 9.834 9.833 9.834c2.445 0 4.79-.903 6.6-2.544a1 1 0 0 1 1.344 1.483c-2.179 1.973-5 3.06-7.943 3.06z" style="stroke:none;stroke-width:1;stroke-dasharray:none;stroke-linecap:butt;stroke-linejoin:miter;stroke-miterlimit:10;fill:#000;fill-rule:nonzero;opacity:1"/><path d="M45.628 18.765a1 1 0 0 1-1-1V13.61a1 1 0 0 1 2 0v4.155a1 1 0 0 1-1 1zm0 25.822a1 1 0 0 1-1-1v-4.155a1 1 0 0 1 2 0v4.155a1 1 0 0 1-1 1z" style="stroke:none;stroke-width:1;stroke-dasharray:none;stroke-linecap:butt;stroke-linejoin:miter;stroke-miterlimit:10;fill:#000;fill-rule:nonzero;opacity:1"/></g></svg>