<svg xmlns="http://www.w3.org/2000/svg" xml:space="preserve" width="256" height="256"><g style="stroke:none;stroke-width:0;stroke-dasharray:none;stroke-linecap:butt;stroke-linejoin:miter;stroke-miterlimit:10;fill:none;fill-rule:nonzero;opacity:1" transform="translate(1.964 1.964) scale(2.8008)"><path d="M45 1C20.699 1 1 20.699 1 45s19.699 44 44 44 44-19.699 44-44S69.301 1 45 1zm0 80.876C24.634 81.876 8.124 65.366 8.124 45 8.124 24.634 24.634 8.124 45 8.124S81.876 24.634 81.876 45c0 20.366-16.51 36.876-36.876 36.876z" style="stroke:none;stroke-width:1;stroke-dasharray:none;stroke-linecap:butt;stroke-linejoin:miter;stroke-miterlimit:10;fill:#f0bc5e;fill-rule:nonzero;opacity:1"/><circle cx="36.948" cy="53.558" r="3.618" style="stroke:none;stroke-width:1;stroke-dasharray:none;stroke-linecap:butt;stroke-linejoin:miter;stroke-miterlimit:10;fill:#f0bc5e;fill-rule:nonzero;opacity:1"/><circle cx="52.228" cy="37.408" r="3.618" style="stroke:none;stroke-width:1;stroke-dasharray:none;stroke-linecap:butt;stroke-linejoin:miter;stroke-miterlimit:10;fill:#f0bc5e;fill-rule:nonzero;opacity:1"/><circle cx="67.268" cy="55.978" r="3.618" style="stroke:none;stroke-width:1;stroke-dasharray:none;stroke-linecap:butt;stroke-linejoin:miter;stroke-miterlimit:10;fill:#f0bc5e;fill-rule:nonzero;opacity:1"/><circle cx="22.228" cy="41.188" r="3.618" style="stroke:none;stroke-width:1;stroke-dasharray:none;stroke-linecap:butt;stroke-linejoin:miter;stroke-miterlimit:10;fill:#f0bc5e;fill-rule:nonzero;opacity:1"/><path d="M45 82.876C24.115 82.876 7.124 65.885 7.124 45S24.115 7.124 45 7.124a37.753 37.753 0 0 1 20.333 5.915 1 1 0 0 1-1.074 1.687A35.76 35.76 0 0 0 45 9.124C25.218 9.124 9.124 25.218 9.124 45S25.218 80.876 45 80.876 80.876 64.782 80.876 45c0-8.361-2.938-16.5-8.272-22.918a1 1 0 1 1 1.537-1.278 37.925 37.925 0 0 1 8.735 24.197c0 20.884-16.991 37.875-37.876 37.875z" style="stroke:none;stroke-width:1;stroke-dasharray:none;stroke-linecap:butt;stroke-linejoin:miter;stroke-miterlimit:10;fill:#000;fill-rule:nonzero;opacity:1"/><path d="M36.952 50.944a1 1 0 0 1-1-1V26.419a5.32 5.32 0 0 1 5.313-5.313h21.688a5.32 5.32 0 0 1 5.314 5.313v14.267A3.317 3.317 0 0 0 71.58 44h10.295a1 1 0 1 1 0 2H71.581a5.32 5.32 0 0 1-5.313-5.314V26.419a3.317 3.317 0 0 0-3.314-3.313H41.265a3.316 3.316 0 0 0-3.313 3.313v23.525a1 1 0 0 1-1 1zm30.316 24.33a1 1 0 0 1-1-1V59.6a1 1 0 1 1 2 0v14.675a1 1 0 0 1-1 .999z" style="stroke:none;stroke-width:1;stroke-dasharray:none;stroke-linecap:butt;stroke-linejoin:miter;stroke-miterlimit:10;fill:#000;fill-rule:nonzero;opacity:1"/><path d="M36.952 58.18a4.623 4.623 0 0 1-4.618-4.617c0-2.547 2.072-4.618 4.618-4.618s4.618 2.071 4.618 4.618a4.624 4.624 0 0 1-4.618 4.617zm0-7.236c-1.444 0-2.618 1.175-2.618 2.618s1.174 2.617 2.618 2.617c1.443 0 2.618-1.174 2.618-2.617s-1.175-2.618-2.618-2.618zm15.28 31.22a1 1 0 0 1-1-1V41.025a1 1 0 1 1 2 0v40.139a1 1 0 0 1-1 1z" style="stroke:none;stroke-width:1;stroke-dasharray:none;stroke-linecap:butt;stroke-linejoin:miter;stroke-miterlimit:10;fill:#000;fill-rule:nonzero;opacity:1"/><path d="M52.232 42.025c-2.547 0-4.618-2.072-4.618-4.618s2.071-4.618 4.618-4.618 4.618 2.071 4.618 4.618-2.071 4.618-4.618 4.618zm0-7.236a2.621 2.621 0 0 0-2.618 2.618c0 1.444 1.175 2.618 2.618 2.618s2.618-1.174 2.618-2.618a2.62 2.62 0 0 0-2.618-2.618zM67.268 60.6a4.622 4.622 0 0 1-4.618-4.617 4.622 4.622 0 0 1 4.618-4.618 4.622 4.622 0 0 1 4.617 4.618 4.623 4.623 0 0 1-4.617 4.617zm0-7.236c-1.443 0-2.618 1.175-2.618 2.618s1.175 2.617 2.618 2.617 2.617-1.174 2.617-2.617-1.174-2.618-2.617-2.618z" style="stroke:none;stroke-width:1;stroke-dasharray:none;stroke-linecap:butt;stroke-linejoin:miter;stroke-miterlimit:10;fill:#000;fill-rule:nonzero;opacity:1"/><path d="M45 90C20.187 90 0 69.813 0 45S20.187 0 45 0s45 20.187 45 45-20.187 45-45 45zm0-88C21.29 2 2 21.29 2 45s19.29 43 43 43 43-19.29 43-43S68.71 2 45 2z" style="stroke:none;stroke-width:1;stroke-dasharray:none;stroke-linecap:butt;stroke-linejoin:miter;stroke-miterlimit:10;fill:#000;fill-rule:nonzero;opacity:1"/><path d="M22.232 38.57a1 1 0 0 1-1-1V16.002a1 1 0 0 1 2 0V37.57a1 1 0 0 1-1 1z" style="stroke:none;stroke-width:1;stroke-dasharray:none;stroke-linecap:butt;stroke-linejoin:miter;stroke-miterlimit:10;fill:#000;fill-rule:nonzero;opacity:1"/><path d="M22.232 45.806c-2.546 0-4.618-2.071-4.618-4.618s2.072-4.618 4.618-4.618 4.618 2.072 4.618 4.618-2.071 4.618-4.618 4.618zm0-7.236a2.62 2.62 0 0 0-2.618 2.618c0 1.443 1.174 2.618 2.618 2.618s2.618-1.174 2.618-2.618a2.62 2.62 0 0 0-2.618-2.618zm14.72 43.42a1 1 0 0 1-1-1V68.944a2.735 2.735 0 0 0-2.732-2.732l-18.931.185c-.555.027-1.004-.438-1.01-.99a1 1 0 0 1 .99-1.01l18.941-.185a4.74 4.74 0 0 1 4.742 4.732V80.99a1 1 0 0 1-1 1z" style="stroke:none;stroke-width:1;stroke-dasharray:none;stroke-linecap:butt;stroke-linejoin:miter;stroke-miterlimit:10;fill:#000;fill-rule:nonzero;opacity:1"/></g></svg>