<svg xmlns="http://www.w3.org/2000/svg" xml:space="preserve" width="256" height="256"><g style="stroke:none;stroke-width:0;stroke-dasharray:none;stroke-linecap:butt;stroke-linejoin:miter;stroke-miterlimit:10;fill:none;fill-rule:nonzero;opacity:1" transform="translate(1.964 1.964) scale(2.8008)"><rect width="5.81" height="9.42" x="24.81" y="62.54" rx="0" ry="0" style="stroke:none;stroke-width:1;stroke-dasharray:none;stroke-linecap:butt;stroke-linejoin:miter;stroke-miterlimit:10;fill:#f0bc5e;fill-rule:nonzero;opacity:1" transform="rotate(-90 27.72 67.246)"/><rect width="20.16" height="9.42" x="36.47" y="55.36" rx="0" ry="0" style="stroke:none;stroke-width:1;stroke-dasharray:none;stroke-linecap:butt;stroke-linejoin:miter;stroke-miterlimit:10;fill:#f0bc5e;fill-rule:nonzero;opacity:1" transform="rotate(-90 46.553 60.07)"/><rect width="34.52" height="9.42" x="48.13" y="48.19" rx="0" ry="0" style="stroke:none;stroke-width:1;stroke-dasharray:none;stroke-linecap:butt;stroke-linejoin:miter;stroke-miterlimit:10;fill:#f0bc5e;fill-rule:nonzero;opacity:1" transform="rotate(-90 65.385 52.894)"/><circle cx="63.017" cy="14.447" r="12.357" style="stroke:none;stroke-width:1;stroke-dasharray:none;stroke-linecap:butt;stroke-linejoin:miter;stroke-miterlimit:10;fill:#f0bc5e;fill-rule:nonzero;opacity:1"/><path d="M10.287 45.351a1 1 0 0 1-1-1V28.14a5.178 5.178 0 0 1 5.172-5.172h22.582a1 1 0 0 1 0 2H14.459a3.176 3.176 0 0 0-3.172 3.172v16.211a1 1 0 0 1-1 1zM83.27 77.859H10.287a1 1 0 0 1-1-1V65.145a1 1 0 1 1 2 0V75.86H82.27V28.14a3.176 3.176 0 0 0-3.172-3.172h-8.206a1 1 0 1 1 0-2h8.206a5.178 5.178 0 0 1 5.172 5.172v48.719a1 1 0 0 1-1 1z" style="stroke:none;stroke-width:1;stroke-dasharray:none;stroke-linecap:butt;stroke-linejoin:miter;stroke-miterlimit:10;fill:#000;fill-rule:nonzero;opacity:1"/><path d="M80.543 88.909h-67.98c-5.214 0-9.457-4.242-9.457-9.456v-2.594a1 1 0 0 1 1-1H89a1 1 0 0 1 1 1v2.594c0 5.214-4.242 9.456-9.457 9.456zM5.106 77.859v1.594c0 4.111 3.345 7.456 7.457 7.456h67.98c4.112 0 7.457-3.345 7.457-7.456v-1.594H5.106z" style="stroke:none;stroke-width:1;stroke-dasharray:none;stroke-linecap:butt;stroke-linejoin:miter;stroke-miterlimit:10;fill:#000;fill-rule:nonzero;opacity:1"/><path d="M50.404 83.385H40.031a1 1 0 1 1 0-2h10.374a1 1 0 1 1-.001 2zM32.429 71.152h-9.417a1 1 0 0 1-1-1V64.34a1 1 0 0 1 1-1h9.417a1 1 0 0 1 1 1v5.813a1 1 0 0 1-1 .999zm-8.417-2h7.417V65.34h-7.417v3.812zm27.249 2h-9.416a1 1 0 0 1-1-1V49.987a1 1 0 0 1 1-1h9.416a1 1 0 0 1 1 1v20.165a1 1 0 0 1-1 1zm-8.416-2h7.416V50.987h-7.416v18.165zm27.249 2h-9.416a1 1 0 0 1-1-1V35.635a1 1 0 0 1 1-1h9.416a1 1 0 0 1 1 1v34.518a1 1 0 0 1-1 .999zm-8.416-2h7.416V36.635h-7.416v32.517zm1.336-41.348c-7.365 0-13.356-5.992-13.356-13.357S55.648 1.09 63.014 1.09s13.357 5.992 13.357 13.357-5.992 13.357-13.357 13.357zm0-24.714c-6.262 0-11.356 5.095-11.356 11.357s5.095 11.357 11.356 11.357c6.263 0 11.357-5.095 11.357-11.357S69.276 3.09 63.014 3.09z" style="stroke:none;stroke-width:1;stroke-dasharray:none;stroke-linecap:butt;stroke-linejoin:miter;stroke-miterlimit:10;fill:#000;fill-rule:nonzero;opacity:1"/><path d="M63.264 20.686a6.245 6.245 0 0 1-6.238-6.238 6.246 6.246 0 0 1 6.238-6.238c1.551 0 3.038.573 4.188 1.614a1 1 0 0 1-1.344 1.483 4.227 4.227 0 0 0-2.844-1.097c-2.337 0-4.238 1.901-4.238 4.238s1.901 4.238 4.238 4.238c1.054 0 2.063-.39 2.844-1.097a1 1 0 0 1 1.344 1.483 6.235 6.235 0 0 1-4.188 1.614z" style="stroke:none;stroke-width:1;stroke-dasharray:none;stroke-linecap:butt;stroke-linejoin:miter;stroke-miterlimit:10;fill:#000;fill-rule:nonzero;opacity:1"/><path d="M63.264 10.209a1 1 0 0 1-1-1V7.2a1 1 0 1 1 2 0v2.009a1 1 0 0 1-1 1zm0 12.485a1 1 0 0 1-1-1v-2.009a1 1 0 1 1 2 0v2.009a1 1 0 0 1-1 1zM1 62.897a1 1 0 0 1-.608-1.794L46.257 26.01a1 1 0 1 1 1.214 1.588L1.608 62.691a.996.996 0 0 1-.608.206zm6.721 5.211a1 1 0 0 1-.608-1.794l48.119-36.818a1 1 0 0 1 1.214 1.589L8.328 67.902a.996.996 0 0 1-.607.206zm0-20.705a1 1 0 0 1-.608-1.794l37.839-28.954a1 1 0 1 1 1.215 1.588L8.328 47.197a.996.996 0 0 1-.607.206z" style="stroke:none;stroke-width:1;stroke-dasharray:none;stroke-linecap:butt;stroke-linejoin:miter;stroke-miterlimit:10;fill:#000;fill-rule:nonzero;opacity:1"/></g></svg>