<svg xmlns="http://www.w3.org/2000/svg" xmlns:xlink="http://www.w3.org/1999/xlink" version="1.1" width="256" height="256" viewBox="0 0 256 256" xml:space="preserve">
<desc>Created with Fabric.js 1.7.22</desc>
<defs>
</defs>
<g transform="translate(128 128) scale(0.72 0.72)" style="">
	<g style="stroke: none; stroke-width: 0; stroke-dasharray: none; stroke-linecap: butt; stroke-linejoin: miter; stroke-miterlimit: 10; fill: none; fill-rule: nonzero; opacity: 1;" transform="translate(-175.05 -175.05) scale(3.89 3.89)" >
	<rect x="20.62" y="75.88" rx="0" ry="0" width="53.66" height="6.56" style="stroke: none; stroke-width: 1; stroke-dasharray: none; stroke-linecap: butt; stroke-linejoin: miter; stroke-miterlimit: 10; fill: rgb(240,188,94); fill-rule: nonzero; opacity: 1;" transform=" matrix(1 0 0 1 0 0) "/>
	<rect x="18.3" y="62.76" rx="0" ry="0" width="53.66" height="6.56" style="stroke: none; stroke-width: 1; stroke-dasharray: none; stroke-linecap: butt; stroke-linejoin: miter; stroke-miterlimit: 10; fill: rgb(240,188,94); fill-rule: nonzero; opacity: 1;" transform=" matrix(1 0 0 1 0 0) "/>
	<path d="M 45 1 C 29.758 1 17.402 13.356 17.402 28.598 S 29.758 56.196 45 56.196 S 72.598 43.84 72.598 28.598 S 60.242 1 45 1 z M 45 49.857 c -11.741 0 -21.258 -9.518 -21.258 -21.259 C 23.742 16.858 33.259 7.34 45 7.34 s 21.258 9.518 21.258 21.258 C 66.258 40.339 56.741 49.857 45 49.857 z" style="stroke: none; stroke-width: 1; stroke-dasharray: none; stroke-linecap: butt; stroke-linejoin: miter; stroke-miterlimit: 10; fill: rgb(240,188,94); fill-rule: nonzero; opacity: 1;" transform=" matrix(1 0 0 1 0 0) " stroke-linecap="round" />
	<path d="M 74.279 83.439 H 20.623 c -0.552 0 -1 -0.447 -1 -1 v -6.561 c 0 -0.553 0.448 -1 1 -1 H 74.28 c 0.553 0 1 0.447 1 1 v 6.561 C 75.279 82.992 74.832 83.439 74.279 83.439 z M 21.623 81.439 H 73.28 v -4.561 H 21.623 V 81.439 z" style="stroke: none; stroke-width: 1; stroke-dasharray: none; stroke-linecap: butt; stroke-linejoin: miter; stroke-miterlimit: 10; fill: rgb(0,0,0); fill-rule: nonzero; opacity: 1;" transform=" matrix(1 0 0 1 0 0) " stroke-linecap="round" />
	<path d="M 70.6 90 H 16.943 c -0.552 0 -1 -0.447 -1 -1 v -6.561 c 0 -0.553 0.448 -1 1 -1 H 70.6 c 0.553 0 1 0.447 1 1 V 89 C 71.6 89.553 71.152 90 70.6 90 z M 17.943 88 H 69.6 v -4.561 H 17.943 V 88 z" style="stroke: none; stroke-width: 1; stroke-dasharray: none; stroke-linecap: butt; stroke-linejoin: miter; stroke-miterlimit: 10; fill: rgb(0,0,0); fill-rule: nonzero; opacity: 1;" transform=" matrix(1 0 0 1 0 0) " stroke-linecap="round" />
	<path d="M 69.377 76.879 H 15.721 c -0.552 0 -1 -0.447 -1 -1 v -6.561 c 0 -0.553 0.448 -1 1 -1 h 53.656 c 0.553 0 1 0.447 1 1 v 6.561 C 70.377 76.432 69.93 76.879 69.377 76.879 z M 16.721 74.879 h 51.656 v -4.561 H 16.721 V 74.879 z" style="stroke: none; stroke-width: 1; stroke-dasharray: none; stroke-linecap: butt; stroke-linejoin: miter; stroke-miterlimit: 10; fill: rgb(0,0,0); fill-rule: nonzero; opacity: 1;" transform=" matrix(1 0 0 1 0 0) " stroke-linecap="round" />
	<path d="M 71.957 70.318 H 18.301 c -0.552 0 -1 -0.447 -1 -1 v -6.561 c 0 -0.553 0.448 -1 1 -1 h 53.656 c 0.553 0 1 0.447 1 1 v 6.561 C 72.957 69.871 72.51 70.318 71.957 70.318 z M 19.301 68.318 h 51.656 v -4.561 H 19.301 V 68.318 z" style="stroke: none; stroke-width: 1; stroke-dasharray: none; stroke-linecap: butt; stroke-linejoin: miter; stroke-miterlimit: 10; fill: rgb(0,0,0); fill-rule: nonzero; opacity: 1;" transform=" matrix(1 0 0 1 0 0) " stroke-linecap="round" />
	<path d="M 69.377 63.758 H 15.721 c -0.552 0 -1 -0.447 -1 -1 v -6.562 c 0 -0.553 0.448 -1 1 -1 h 53.656 c 0.553 0 1 0.447 1 1 v 6.562 C 70.377 63.311 69.93 63.758 69.377 63.758 z M 16.721 61.758 h 51.656 v -4.562 H 16.721 V 61.758 z" style="stroke: none; stroke-width: 1; stroke-dasharray: none; stroke-linecap: butt; stroke-linejoin: miter; stroke-miterlimit: 10; fill: rgb(0,0,0); fill-rule: nonzero; opacity: 1;" transform=" matrix(1 0 0 1 0 0) " stroke-linecap="round" />
	<path d="M 45 50.856 c -12.273 0 -22.258 -9.985 -22.258 -22.258 S 32.727 6.34 45 6.34 c 4.25 0 8.383 1.202 11.95 3.477 c 0.465 0.297 0.602 0.915 0.305 1.381 c -0.296 0.466 -0.912 0.603 -1.381 0.306 C 52.629 9.434 48.869 8.34 45 8.34 c -11.17 0 -20.258 9.088 -20.258 20.258 S 33.83 48.856 45 48.856 c 11.171 0 20.259 -9.088 20.259 -20.258 c 0 -4.72 -1.659 -9.316 -4.672 -12.941 c -0.354 -0.425 -0.295 -1.055 0.129 -1.408 c 0.427 -0.354 1.056 -0.295 1.408 0.13 c 3.312 3.983 5.135 9.033 5.135 14.219 C 67.259 40.872 57.273 50.856 45 50.856 z" style="stroke: none; stroke-width: 1; stroke-dasharray: none; stroke-linecap: butt; stroke-linejoin: miter; stroke-miterlimit: 10; fill: rgb(0,0,0); fill-rule: nonzero; opacity: 1;" transform=" matrix(1 0 0 1 0 0) " stroke-linecap="round" />
	<path d="M 45 57.196 c -15.769 0 -28.598 -12.829 -28.598 -28.598 S 29.231 0 45 0 c 15.77 0 28.599 12.829 28.599 28.598 S 60.77 57.196 45 57.196 z M 45 2 C 30.333 2 18.402 13.932 18.402 28.598 S 30.333 55.196 45 55.196 s 26.599 -11.932 26.599 -26.598 S 59.667 2 45 2 z" style="stroke: none; stroke-width: 1; stroke-dasharray: none; stroke-linecap: butt; stroke-linejoin: miter; stroke-miterlimit: 10; fill: rgb(0,0,0); fill-rule: nonzero; opacity: 1;" transform=" matrix(1 0 0 1 0 0) " stroke-linecap="round" />
	<path d="M 45.628 40.432 c -6.525 0 -11.833 -5.309 -11.833 -11.834 s 5.309 -11.833 11.833 -11.833 c 2.943 0 5.764 1.087 7.943 3.062 c 0.409 0.371 0.44 1.003 0.069 1.413 s -1.005 0.439 -1.413 0.07 c -1.81 -1.641 -4.154 -2.544 -6.6 -2.544 c -5.422 0 -9.833 4.411 -9.833 9.833 s 4.411 9.834 9.833 9.834 c 2.445 0 4.79 -0.903 6.6 -2.544 c 0.408 -0.37 1.042 -0.34 1.413 0.07 c 0.371 0.409 0.34 1.042 -0.069 1.413 C 51.392 39.345 48.571 40.432 45.628 40.432 z" style="stroke: none; stroke-width: 1; stroke-dasharray: none; stroke-linecap: butt; stroke-linejoin: miter; stroke-miterlimit: 10; fill: rgb(0,0,0); fill-rule: nonzero; opacity: 1;" transform=" matrix(1 0 0 1 0 0) " stroke-linecap="round" />
	<path d="M 45.628 18.765 c -0.552 0 -1 -0.448 -1 -1 V 13.61 c 0 -0.552 0.448 -1 1 -1 c 0.553 0 1 0.448 1 1 v 4.155 C 46.628 18.317 46.181 18.765 45.628 18.765 z" style="stroke: none; stroke-width: 1; stroke-dasharray: none; stroke-linecap: butt; stroke-linejoin: miter; stroke-miterlimit: 10; fill: rgb(0,0,0); fill-rule: nonzero; opacity: 1;" transform=" matrix(1 0 0 1 0 0) " stroke-linecap="round" />
	<path d="M 45.628 44.587 c -0.552 0 -1 -0.448 -1 -1 v -4.155 c 0 -0.552 0.448 -1 1 -1 c 0.553 0 1 0.448 1 1 v 4.155 C 46.628 44.139 46.181 44.587 45.628 44.587 z" style="stroke: none; stroke-width: 1; stroke-dasharray: none; stroke-linecap: butt; stroke-linejoin: miter; stroke-miterlimit: 10; fill: rgb(0,0,0); fill-rule: nonzero; opacity: 1;" transform=" matrix(1 0 0 1 0 0) " stroke-linecap="round" />
</g>
</g>
</svg>