<svg xmlns="http://www.w3.org/2000/svg" xmlns:xlink="http://www.w3.org/1999/xlink" version="1.1" width="256" height="256" viewBox="0 0 256 256" xml:space="preserve">
<desc>Created with Fabric.js 1.7.22</desc>
<defs>
</defs>
<g transform="translate(128 128) scale(0.72 0.72)" style="">
	<g style="stroke: none; stroke-width: 0; stroke-dasharray: none; stroke-linecap: butt; stroke-linejoin: miter; stroke-miterlimit: 10; fill: none; fill-rule: nonzero; opacity: 1;" transform="translate(-175.05 -175.05) scale(3.89 3.89)" >
	<path d="M 45 37.957 c -9.397 0 -17.042 -7.645 -17.042 -17.042 S 35.603 3.872 45 3.872 s 17.043 7.645 17.043 17.042 S 54.397 37.957 45 37.957 z M 45 5.872 c -8.294 0 -15.042 6.748 -15.042 15.042 S 36.706 35.957 45 35.957 c 8.295 0 15.043 -6.748 15.043 -15.042 S 53.295 5.872 45 5.872 z" style="stroke: none; stroke-width: 1; stroke-dasharray: none; stroke-linecap: butt; stroke-linejoin: miter; stroke-miterlimit: 10; fill: rgb(0,0,0); fill-rule: nonzero; opacity: 1;" transform=" matrix(1 0 0 1 0 0) " stroke-linecap="round" />
	<path d="M 45 25.297 c -2.865 0 -5.196 -2.331 -5.196 -5.196 v -2.468 c 0 -2.865 2.331 -5.196 5.196 -5.196 c 2.864 0 5.195 2.331 5.195 5.196 v 2.468 C 50.195 22.966 47.864 25.297 45 25.297 z M 45 14.438 c -1.762 0 -3.196 1.434 -3.196 3.196 v 2.468 c 0 1.762 1.434 3.196 3.196 3.196 c 1.762 0 3.195 -1.434 3.195 -3.196 v -2.468 C 48.195 15.871 46.762 14.438 45 14.438 z" style="stroke: none; stroke-width: 1; stroke-dasharray: none; stroke-linecap: butt; stroke-linejoin: miter; stroke-miterlimit: 10; fill: rgb(0,0,0); fill-rule: nonzero; opacity: 1;" transform=" matrix(1 0 0 1 0 0) " stroke-linecap="round" />
	<path d="M 45 37.957 c -2.438 0 -4.797 -0.508 -7.014 -1.511 c -0.358 -0.162 -0.588 -0.519 -0.588 -0.911 v -4.636 c 0 -4.192 3.41 -7.602 7.602 -7.602 c 4.192 0 7.603 3.41 7.603 7.602 v 4.636 c 0 0.393 -0.23 0.75 -0.588 0.911 C 49.797 37.449 47.438 37.957 45 37.957 z M 39.398 34.875 c 3.567 1.437 7.636 1.437 11.205 0 v -3.976 c 0 -3.089 -2.514 -5.602 -5.603 -5.602 s -5.602 2.513 -5.602 5.602 V 34.875 z M 51.603 35.535 h 0.01 H 51.603 z" style="stroke: none; stroke-width: 1; stroke-dasharray: none; stroke-linecap: butt; stroke-linejoin: miter; stroke-miterlimit: 10; fill: rgb(0,0,0); fill-rule: nonzero; opacity: 1;" transform=" matrix(1 0 0 1 0 0) " stroke-linecap="round" />
	<path d="M 45 54.043 c -0.552 0 -1 -0.447 -1 -1 V 42.098 c 0 -0.552 0.448 -1 1 -1 s 1 0.448 1 1 v 10.945 C 46 53.596 45.552 54.043 45 54.043 z" style="stroke: none; stroke-width: 1; stroke-dasharray: none; stroke-linecap: butt; stroke-linejoin: miter; stroke-miterlimit: 10; fill: #f0bc5e; fill-rule: nonzero; opacity: 1;" transform=" matrix(1 0 0 1 0 0) " stroke-linecap="round" />
	<path d="M 35.648 59.426 c -0.346 0 -0.683 -0.18 -0.868 -0.501 c -0.275 -0.479 -0.111 -1.09 0.368 -1.366 l 9.353 -5.383 c 0.479 -0.274 1.09 -0.109 1.366 0.368 c 0.276 0.479 0.111 1.09 -0.368 1.366 l -9.353 5.383 C 35.989 59.383 35.817 59.426 35.648 59.426 z" style="stroke: none; stroke-width: 1; stroke-dasharray: none; stroke-linecap: butt; stroke-linejoin: miter; stroke-miterlimit: 10; fill: #f0bc5e; fill-rule: nonzero; opacity: 1;" transform=" matrix(1 0 0 1 0 0) " stroke-linecap="round" />
	<path d="M 54.352 59.426 c -0.169 0 -0.341 -0.043 -0.498 -0.133 l -9.353 -5.383 c -0.479 -0.276 -0.643 -0.888 -0.368 -1.366 s 0.888 -0.641 1.366 -0.368 l 9.353 5.383 c 0.479 0.276 0.644 0.888 0.368 1.366 C 55.034 59.246 54.697 59.426 54.352 59.426 z" style="stroke: none; stroke-width: 1; stroke-dasharray: none; stroke-linecap: butt; stroke-linejoin: miter; stroke-miterlimit: 10; fill: #f0bc5e; fill-rule: nonzero; opacity: 1;" transform=" matrix(1 0 0 1 0 0) " stroke-linecap="round" />
	<path d="M 72.957 86.128 c -9.397 0 -17.042 -7.645 -17.042 -17.042 s 7.645 -17.043 17.042 -17.043 S 90 59.688 90 69.086 S 82.354 86.128 72.957 86.128 z M 72.957 54.043 c -8.294 0 -15.042 6.748 -15.042 15.043 c 0 8.294 6.748 15.042 15.042 15.042 C 81.252 84.128 88 77.38 88 69.086 C 88 60.791 81.252 54.043 72.957 54.043 z" style="stroke: none; stroke-width: 1; stroke-dasharray: none; stroke-linecap: butt; stroke-linejoin: miter; stroke-miterlimit: 10; fill: rgb(0,0,0); fill-rule: nonzero; opacity: 1;" transform=" matrix(1 0 0 1 0 0) " stroke-linecap="round" />
	<path d="M 72.957 73.468 c -2.864 0 -5.195 -2.331 -5.195 -5.195 v -2.469 c 0 -2.864 2.331 -5.195 5.195 -5.195 c 2.865 0 5.196 2.331 5.196 5.195 v 2.469 C 78.153 71.137 75.822 73.468 72.957 73.468 z M 72.957 62.608 c -1.762 0 -3.195 1.434 -3.195 3.195 v 2.469 c 0 1.762 1.434 3.195 3.195 3.195 c 1.763 0 3.196 -1.434 3.196 -3.195 v -2.469 C 76.153 64.042 74.72 62.608 72.957 62.608 z" style="stroke: none; stroke-width: 1; stroke-dasharray: none; stroke-linecap: butt; stroke-linejoin: miter; stroke-miterlimit: 10; fill: rgb(0,0,0); fill-rule: nonzero; opacity: 1;" transform=" matrix(1 0 0 1 0 0) " stroke-linecap="round" />
	<path d="M 72.957 86.128 c -2.437 0 -4.796 -0.508 -7.014 -1.511 c -0.357 -0.162 -0.588 -0.519 -0.588 -0.911 V 79.07 c 0 -4.192 3.41 -7.603 7.602 -7.603 c 4.192 0 7.603 3.41 7.603 7.603 v 4.636 c 0 0.393 -0.23 0.749 -0.588 0.911 C 77.754 85.62 75.394 86.128 72.957 86.128 z M 67.355 83.046 c 3.568 1.438 7.637 1.438 11.204 0 V 79.07 c 0 -3.089 -2.514 -5.603 -5.603 -5.603 s -5.602 2.514 -5.602 5.603 V 83.046 z M 79.56 83.706 h 0.01 H 79.56 z" style="stroke: none; stroke-width: 1; stroke-dasharray: none; stroke-linecap: butt; stroke-linejoin: miter; stroke-miterlimit: 10; fill: rgb(0,0,0); fill-rule: nonzero; opacity: 1;" transform=" matrix(1 0 0 1 0 0) " stroke-linecap="round" />
	<path d="M 17.042 86.128 C 7.645 86.128 0 78.483 0 69.086 s 7.645 -17.043 17.042 -17.043 s 17.042 7.646 17.042 17.043 S 26.44 86.128 17.042 86.128 z M 17.042 54.043 C 8.748 54.043 2 60.791 2 69.086 c 0 8.294 6.748 15.042 15.042 15.042 s 15.042 -6.748 15.042 -15.042 C 32.085 60.791 25.337 54.043 17.042 54.043 z" style="stroke: none; stroke-width: 1; stroke-dasharray: none; stroke-linecap: butt; stroke-linejoin: miter; stroke-miterlimit: 10; fill: rgb(0,0,0); fill-rule: nonzero; opacity: 1;" transform=" matrix(1 0 0 1 0 0) " stroke-linecap="round" />
	<path d="M 17.042 73.468 c -2.865 0 -5.196 -2.331 -5.196 -5.195 v -2.469 c 0 -2.864 2.331 -5.195 5.196 -5.195 s 5.196 2.331 5.196 5.195 v 2.469 C 22.238 71.137 19.907 73.468 17.042 73.468 z M 17.042 62.608 c -1.762 0 -3.196 1.434 -3.196 3.195 v 2.469 c 0 1.762 1.434 3.195 3.196 3.195 s 3.196 -1.434 3.196 -3.195 v -2.469 C 20.238 64.042 18.805 62.608 17.042 62.608 z" style="stroke: none; stroke-width: 1; stroke-dasharray: none; stroke-linecap: butt; stroke-linejoin: miter; stroke-miterlimit: 10; fill: rgb(0,0,0); fill-rule: nonzero; opacity: 1;" transform=" matrix(1 0 0 1 0 0) " stroke-linecap="round" />
	<path d="M 17.042 86.128 c -2.436 0 -4.795 -0.508 -7.014 -1.511 C 9.67 84.455 9.44 84.099 9.44 83.706 V 79.07 c 0 -4.192 3.41 -7.603 7.602 -7.603 s 7.602 3.41 7.602 7.603 v 4.636 c 0 0.393 -0.23 0.749 -0.588 0.911 C 21.838 85.62 19.479 86.128 17.042 86.128 z M 11.44 83.046 c 3.569 1.438 7.635 1.438 11.204 0 V 79.07 c 0 -3.089 -2.513 -5.603 -5.602 -5.603 s -5.602 2.514 -5.602 5.603 V 83.046 z M 23.645 83.706 h 0.01 H 23.645 z" style="stroke: none; stroke-width: 1; stroke-dasharray: none; stroke-linecap: butt; stroke-linejoin: miter; stroke-miterlimit: 10; fill: rgb(0,0,0); fill-rule: nonzero; opacity: 1;" transform=" matrix(1 0 0 1 0 0) " stroke-linecap="round" />
</g>
</g>
</svg>