<svg xmlns="http://www.w3.org/2000/svg" xmlns:xlink="http://www.w3.org/1999/xlink" version="1.1" width="30" height="30" viewBox="0 0 256 256" xml:space="preserve">
<desc>Created with Fabric.js 1.7.22</desc>
<defs>
</defs>
<g transform="translate(128 128) scale(0.72 0.72)" style="">
	<g style="stroke: none; stroke-width: 0; stroke-dasharray: none; stroke-linecap: butt; stroke-linejoin: miter; stroke-miterlimit: 10; fill: none; fill-rule: nonzero; opacity: 1;" transform="translate(-175.05 -175.05) scale(3.89 3.89)" >
	<path d="M 45 90 c -2.883 0 -5.464 -1.607 -6.734 -4.195 v -0.001 L 1.471 10.811 C 0.105 8.027 0.572 4.746 2.662 2.454 c 2.09 -2.292 5.314 -3.06 8.213 -1.956 l 34.125 13 l 34.125 -13 c 2.901 -1.106 6.122 -0.336 8.212 1.956 c 2.09 2.292 2.558 5.572 1.191 8.357 L 51.734 85.804 C 50.463 88.393 47.883 90 45 90 z M 9.212 8.426 L 45 81.366 l 35.788 -72.94 L 47.67 21.042 c -1.723 0.657 -3.619 0.655 -5.34 0 L 9.212 8.426 z" style="stroke: none; stroke-width: 1; stroke-dasharray: none; stroke-linecap: butt; stroke-linejoin: miter; stroke-miterlimit: 10; fill: rgb(255,255,255); fill-rule: nonzero; opacity: 1;" transform=" matrix(1 0 0 1 0 0) " stroke-linecap="round" />
</g>
</g>
</svg>