<svg xmlns="http://www.w3.org/2000/svg" xmlns:xlink="http://www.w3.org/1999/xlink" version="1.1" width="180" height="180" viewBox="0 0 256 256" xml:space="preserve">
<desc>Created with Fabric.js 1.7.22</desc>
<defs>
</defs>
<g transform="translate(128 128) scale(0.72 0.72)" style="">
	<g style="stroke: none; stroke-width: 0; stroke-dasharray: none; stroke-linecap: butt; stroke-linejoin: miter; stroke-miterlimit: 10; fill: none; fill-rule: nonzero; opacity: 1;" transform="translate(-175.05 -175.05) scale(3.89 3.89)" >
	<path d="M 35.011 87.252 c -0.782 0 -1.505 -0.081 -2.135 -0.24 c -4.06 -1.028 -14.464 -2.262 -14.568 -2.274 c -0.408 -0.048 -0.746 -0.343 -0.85 -0.74 c -0.013 -0.049 -1.332 -4.947 -6.041 -12.599 c -3.495 -5.68 -1.848 -10.313 0.045 -13.122 c -3.394 -0.898 -8.568 -3.52 -9.056 -11.151 C 1.833 38.16 0.081 33.398 0.064 33.351 c -0.144 -0.385 -0.039 -0.82 0.267 -1.095 c 0.078 -0.071 7.862 -7.085 10.584 -10.267 c 2.349 -2.746 8.358 -5.122 13.196 -3.33 c 0.908 -4.173 4.203 -7.813 7.092 -8.987 C 35.084 8.096 44.198 2.93 44.29 2.878 c 0.357 -0.204 0.803 -0.166 1.124 0.093 c 0.039 0.032 4.003 3.199 12.327 6.577 c 4.377 1.776 7.038 5.052 7.624 9.324 c 4.877 -2.164 11.232 0.208 13.721 3.117 l 0 0 c 2.723 3.183 10.506 10.197 10.584 10.267 c 0.306 0.275 0.411 0.71 0.268 1.095 c -0.019 0.047 -1.77 4.809 -2.343 13.774 c -0.481 7.525 -5.531 10.178 -8.904 11.109 c 2.897 4.146 2.289 10.392 0.336 13.376 c -2.293 3.504 -6.85 12.939 -6.896 13.033 c -0.178 0.37 -0.556 0.592 -0.977 0.563 c -0.047 -0.004 -5.11 -0.353 -13.88 1.606 c -6.348 1.418 -10.162 -1.509 -12.187 -4.054 C 42.579 85.826 38.29 87.251 35.011 87.252 z M 19.196 82.831 c 2.386 0.291 10.542 1.324 14.171 2.242 c 2.852 0.726 8.63 -0.727 10.845 -4.55 c 0.175 -0.303 0.495 -0.491 0.844 -0.499 c 0.362 -0.012 0.677 0.169 0.865 0.463 c 1.731 2.721 5.028 5.688 10.917 4.375 c 7.31 -1.635 12.072 -1.719 13.778 -1.679 c 1.053 -2.161 4.686 -9.535 6.735 -12.668 c 1.786 -2.729 2.071 -9.046 -1.195 -12.182 c -0.274 -0.264 -0.376 -0.659 -0.262 -1.021 c 0.114 -0.362 0.424 -0.629 0.799 -0.688 c 3.127 -0.491 8.442 -2.396 8.904 -9.625 c 0.478 -7.475 1.731 -12.075 2.245 -13.697 c -1.78 -1.616 -7.844 -7.168 -10.277 -10.012 l 0 0 c -2.25 -2.629 -8.637 -4.656 -12.508 -1.96 c -0.305 0.211 -0.7 0.237 -1.027 0.069 c -0.329 -0.169 -0.538 -0.505 -0.544 -0.875 c -0.047 -2.978 -1.213 -6.978 -6.498 -9.122 c -6.939 -2.817 -10.907 -5.46 -12.284 -6.46 c -2.096 1.178 -9.279 5.176 -12.748 6.584 c -2.612 1.062 -5.744 4.888 -6.06 8.68 c -0.028 0.339 -0.227 0.641 -0.528 0.8 c -0.301 0.16 -0.662 0.155 -0.959 -0.012 c -3.922 -2.206 -9.875 -0.16 -11.975 2.295 c -2.433 2.845 -8.497 8.397 -10.277 10.012 c 0.513 1.623 1.767 6.223 2.245 13.697 c 0.464 7.263 5.814 9.153 8.962 9.635 c 0.359 0.055 0.659 0.299 0.786 0.639 c 0.126 0.34 0.06 0.722 -0.176 0.998 c -2.195 2.577 -4.125 6.765 -0.854 12.08 C 17.046 76.729 18.678 81.208 19.196 82.831 z" style="stroke: none; stroke-width: 1; stroke-dasharray: none; stroke-linecap: butt; stroke-linejoin: miter; stroke-miterlimit: 10; fill: #dab6c2; fill-rule: nonzero; opacity: 1;" transform=" matrix(1 0 0 1 0 0) " stroke-linecap="round" />
	<path d="M 45 56.915 c -5.795 0 -10.51 -4.715 -10.51 -10.51 s 4.715 -10.51 10.51 -10.51 s 10.51 4.715 10.51 10.51 S 50.795 56.915 45 56.915 z M 45 37.896 c -4.692 0 -8.51 3.817 -8.51 8.51 s 3.817 8.51 8.51 8.51 s 8.51 -3.817 8.51 -8.51 S 49.692 37.896 45 37.896 z" style="stroke: none; stroke-width: 1; stroke-dasharray: none; stroke-linecap: butt; stroke-linejoin: miter; stroke-miterlimit: 10; fill: #dab6c2; fill-rule: nonzero; opacity: 1;" transform=" matrix(1 0 0 1 0 0) " stroke-linecap="round" />
	<path d="M 59.573 42.966 c -0.429 0 -0.825 -0.278 -0.957 -0.709 c -0.16 -0.528 0.138 -1.087 0.666 -1.248 l 13.174 -4.014 c 0.53 -0.163 1.087 0.138 1.248 0.665 c 0.16 0.528 -0.138 1.087 -0.666 1.248 l -13.174 4.014 C 59.768 42.951 59.669 42.966 59.573 42.966 z" style="stroke: none; stroke-width: 1; stroke-dasharray: none; stroke-linecap: butt; stroke-linejoin: miter; stroke-miterlimit: 10; fill: #dab6c2; fill-rule: nonzero; opacity: 1;" transform=" matrix(1 0 0 1 0 0) " stroke-linecap="round" />
	<path d="M 44.961 31.909 c -0.549 0 -0.997 -0.443 -1 -0.994 l -0.083 -12.625 c -0.003 -0.552 0.441 -1.003 0.994 -1.006 c 0.002 0 0.004 0 0.006 0 c 0.549 0 0.997 0.443 1 0.994 l 0.083 12.625 c 0.003 0.552 -0.441 1.003 -0.994 1.006 C 44.965 31.909 44.963 31.909 44.961 31.909 z" style="stroke: none; stroke-width: 1; stroke-dasharray: none; stroke-linecap: butt; stroke-linejoin: miter; stroke-miterlimit: 10; fill: #dab6c2; fill-rule: nonzero; opacity: 1;" transform=" matrix(1 0 0 1 0 0) " stroke-linecap="round" />
	<path d="M 28.998 42.53 c -0.097 0 -0.195 -0.014 -0.292 -0.044 l -11.062 -3.37 c -0.528 -0.161 -0.826 -0.72 -0.665 -1.248 c 0.161 -0.529 0.72 -0.829 1.248 -0.665 l 11.062 3.37 c 0.528 0.161 0.826 0.72 0.665 1.248 C 29.823 42.252 29.426 42.53 28.998 42.53 z" style="stroke: none; stroke-width: 1; stroke-dasharray: none; stroke-linecap: butt; stroke-linejoin: miter; stroke-miterlimit: 10; fill: #dab6c2; fill-rule: nonzero; opacity: 1;" transform=" matrix(1 0 0 1 0 0) " stroke-linecap="round" />
	<path d="M 29.447 69.257 c -0.201 0 -0.403 -0.061 -0.579 -0.186 c -0.45 -0.32 -0.555 -0.944 -0.234 -1.395 l 6.221 -8.74 c 0.32 -0.449 0.944 -0.554 1.395 -0.234 c 0.45 0.32 0.555 0.944 0.235 1.395 l -6.221 8.74 C 30.067 69.111 29.759 69.257 29.447 69.257 z" style="stroke: none; stroke-width: 1; stroke-dasharray: none; stroke-linecap: butt; stroke-linejoin: miter; stroke-miterlimit: 10; fill: #dab6c2; fill-rule: nonzero; opacity: 1;" transform=" matrix(1 0 0 1 0 0) " stroke-linecap="round" />
	<path d="M 60.162 69.257 c -0.316 0 -0.628 -0.15 -0.822 -0.43 l -6.064 -8.74 c -0.315 -0.454 -0.202 -1.077 0.251 -1.392 c 0.453 -0.316 1.076 -0.202 1.392 0.251 l 6.064 8.74 c 0.315 0.454 0.202 1.077 -0.251 1.392 C 60.558 69.2 60.358 69.257 60.162 69.257 z" style="stroke: none; stroke-width: 1; stroke-dasharray: none; stroke-linecap: butt; stroke-linejoin: miter; stroke-miterlimit: 10; fill: #dab6c2; fill-rule: nonzero; opacity: 1;" transform=" matrix(1 0 0 1 0 0) " stroke-linecap="round" />
</g>
</g>
</svg>