<svg xmlns="http://www.w3.org/2000/svg" xmlns:xlink="http://www.w3.org/1999/xlink" version="1.1" width="180" height="180" viewBox="0 0 256 256" xml:space="preserve">
<desc>Created with Fabric.js 1.7.22</desc>
<defs>
</defs>
<g transform="translate(128 128) scale(0.72 0.72)" style="">
	<g style="stroke: none; stroke-width: 0; stroke-dasharray: none; stroke-linecap: butt; stroke-linejoin: miter; stroke-miterlimit: 10; fill: none; fill-rule: nonzero; opacity: 1;" transform="translate(-175.05 -175.05) scale(3.89 3.89)" >
	<path d="M 35.332 87.324 c -0.861 0 -1.682 -0.094 -2.431 -0.282 c -3.905 -0.989 -14.006 -2.187 -14.107 -2.198 c -0.818 -0.097 -1.494 -0.685 -1.701 -1.482 c -0.011 -0.042 -1.282 -4.718 -5.785 -12.035 c -2.61 -4.242 -2.806 -8.761 -0.642 -12.764 c -4.915 -1.765 -7.959 -5.867 -8.314 -11.427 c -0.548 -8.573 -2.21 -13.125 -2.226 -13.17 c -0.286 -0.769 -0.075 -1.639 0.535 -2.188 c 0.076 -0.069 7.634 -6.879 10.25 -9.939 c 2.387 -2.789 8.004 -5.154 12.966 -3.883 c 1.255 -3.952 4.435 -7.291 7.254 -8.436 c 3.731 -1.515 12.58 -6.531 12.669 -6.582 c 0.716 -0.406 1.609 -0.333 2.249 0.187 c 0.033 0.027 3.827 3.043 11.786 6.274 c 4.214 1.71 6.927 4.741 7.854 8.69 c 5 -1.468 10.955 0.895 13.398 3.751 c 2.618 3.061 10.175 9.87 10.251 9.939 c 0.612 0.551 0.824 1.421 0.533 2.192 c -0.015 0.041 -1.677 4.592 -2.225 13.165 c -0.352 5.505 -3.347 9.587 -8.185 11.379 c 2.243 4.351 1.543 10.147 -0.354 13.045 c -2.205 3.367 -6.63 12.529 -6.674 12.621 c -0.358 0.742 -1.14 1.187 -1.956 1.125 c -0.04 -0.003 -4.879 -0.325 -13.261 1.548 c -6.002 1.337 -9.867 -0.986 -12.159 -3.424 C 42.457 85.974 38.608 87.324 35.332 87.324 z M 20.546 81.027 c 2.92 0.364 10.011 1.295 13.336 2.137 c 2.515 0.635 7.598 -0.75 9.463 -3.969 c 0.35 -0.604 0.99 -0.982 1.689 -0.997 c 0.704 0.011 1.355 0.337 1.73 0.927 c 2.203 3.466 5.43 4.754 9.581 3.824 c 6.442 -1.438 10.929 -1.664 13.053 -1.669 c 1.295 -2.642 4.485 -9.043 6.364 -11.912 c 1.522 -2.325 1.769 -7.929 -1.022 -10.609 c -0.548 -0.526 -0.75 -1.317 -0.522 -2.042 c 0.229 -0.726 0.848 -1.259 1.598 -1.376 c 3.364 -0.528 7.455 -2.425 7.84 -8.461 c 0.421 -6.587 1.46 -10.958 2.05 -12.999 c -2.174 -1.982 -7.427 -6.837 -9.656 -9.442 l 0 0 c -1.752 -2.048 -7.409 -4.144 -10.861 -1.741 c -0.606 0.423 -1.395 0.476 -2.055 0.139 c -0.657 -0.337 -1.076 -1.009 -1.088 -1.748 c -0.061 -3.784 -1.982 -6.471 -5.712 -7.984 c -6.115 -2.482 -9.934 -4.85 -11.683 -6.054 c -2.568 1.436 -8.835 4.885 -12.012 6.175 c -2.011 0.817 -4.996 4.111 -5.288 7.62 c -0.057 0.679 -0.455 1.282 -1.056 1.601 c -0.603 0.319 -1.326 0.311 -1.918 -0.023 c -3.353 -1.885 -8.635 -0.076 -10.425 2.017 c -2.229 2.606 -7.483 7.46 -9.656 9.443 c 0.59 2.04 1.629 6.411 2.05 12.997 c 0.408 6.384 5.12 8.047 7.893 8.47 c 0.717 0.11 1.319 0.599 1.572 1.278 s 0.119 1.443 -0.352 1.996 c -2.8 3.288 -3.05 6.857 -0.743 10.607 C 18.174 74.851 19.85 79.02 20.546 81.027 z" style="stroke: none; stroke-width: 1; stroke-dasharray: none; stroke-linecap: butt; stroke-linejoin: miter; stroke-miterlimit: 10; fill: rgb(255,255,255); fill-rule: nonzero; opacity: .3;" transform=" matrix(1 0 0 1 0 0) " stroke-linecap="round" />
	<path d="M 44.999 56.365 c -5.514 0 -10 -4.486 -10 -10 s 4.486 -10 10 -10 c 5.514 0 10 4.486 10 10 S 50.513 56.365 44.999 56.365 z M 44.999 40.365 c -3.309 0 -6 2.691 -6 6 c 0 3.309 2.691 6 6 6 c 3.309 0 6 -2.691 6 -6 C 50.999 43.057 48.308 40.365 44.999 40.365 z" style="stroke: none; stroke-width: 1; stroke-dasharray: none; stroke-linecap: butt; stroke-linejoin: miter; stroke-miterlimit: 10; fill: rgb(255,255,255); fill-rule: nonzero; opacity: .3;" transform=" matrix(1 0 0 1 0 0) " stroke-linecap="round" />
	<path d="M 59.815 43.851 c -0.856 0 -1.649 -0.555 -1.912 -1.417 c -0.322 -1.057 0.273 -2.174 1.33 -2.496 l 12.3 -3.748 c 1.054 -0.32 2.174 0.273 2.496 1.33 s -0.273 2.174 -1.33 2.496 l -12.3 3.748 C 60.205 43.823 60.008 43.851 59.815 43.851 z" style="stroke: none; stroke-width: 1; stroke-dasharray: none; stroke-linecap: butt; stroke-linejoin: miter; stroke-miterlimit: 10; fill: rgb(255,255,255); fill-rule: nonzero; opacity: .3;" transform=" matrix(1 0 0 1 0 0) " stroke-linecap="round" />
	<path d="M 44.955 32.424 c -1.098 0 -1.992 -0.887 -2 -1.987 l -0.075 -11.541 c -0.007 -1.105 0.882 -2.006 1.987 -2.013 c 0.004 0 0.009 0 0.014 0 c 1.098 0 1.992 0.887 1.999 1.987 l 0.075 11.541 c 0.008 1.105 -0.882 2.006 -1.986 2.013 C 44.965 32.424 44.96 32.424 44.955 32.424 z" style="stroke: none; stroke-width: 1; stroke-dasharray: none; stroke-linecap: butt; stroke-linejoin: miter; stroke-miterlimit: 10; fill: rgb(255,255,255); fill-rule: nonzero; opacity: .3;" transform=" matrix(1 0 0 1 0 0) " stroke-linecap="round" />
	<path d="M 30.183 43.851 c -0.193 0 -0.389 -0.028 -0.584 -0.087 L 17.967 40.22 c -1.057 -0.322 -1.652 -1.439 -1.33 -2.496 c 0.322 -1.056 1.438 -1.652 2.496 -1.33 l 11.632 3.544 c 1.057 0.322 1.652 1.439 1.33 2.496 C 31.833 43.296 31.041 43.851 30.183 43.851 z" style="stroke: none; stroke-width: 1; stroke-dasharray: none; stroke-linecap: butt; stroke-linejoin: miter; stroke-miterlimit: 10; fill: rgb(255,255,255); fill-rule: nonzero; opacity: .3;" transform=" matrix(1 0 0 1 0 0) " stroke-linecap="round" />
	<path d="M 29.799 69.721 c -0.401 0 -0.807 -0.12 -1.158 -0.37 c -0.9 -0.641 -1.11 -1.89 -0.47 -2.79 l 6.08 -8.542 c 0.641 -0.9 1.89 -1.109 2.789 -0.47 c 0.9 0.641 1.11 1.89 0.47 2.79 l -6.08 8.542 C 31.04 69.429 30.424 69.721 29.799 69.721 z" style="stroke: none; stroke-width: 1; stroke-dasharray: none; stroke-linecap: butt; stroke-linejoin: miter; stroke-miterlimit: 10; fill: rgb(255,255,255); fill-rule: nonzero; opacity: .3;" transform=" matrix(1 0 0 1 0 0) " stroke-linecap="round" />
	<path d="M 59.818 69.721 c -0.634 0 -1.257 -0.3 -1.646 -0.86 l -5.927 -8.542 c -0.629 -0.907 -0.404 -2.153 0.504 -2.783 c 0.904 -0.63 2.152 -0.404 2.783 0.504 l 5.927 8.542 c 0.629 0.907 0.404 2.153 -0.504 2.783 C 60.609 69.605 60.211 69.721 59.818 69.721 z" style="stroke: none; stroke-width: 1; stroke-dasharray: none; stroke-linecap: butt; stroke-linejoin: miter; stroke-miterlimit: 10; fill: rgb(255,255,255); fill-rule: nonzero; opacity: .3;" transform=" matrix(1 0 0 1 0 0) " stroke-linecap="round" />
</g>
</g>
</svg>