<svg xmlns="http://www.w3.org/2000/svg" xmlns:xlink="http://www.w3.org/1999/xlink" version="1.1" width="256" height="256" viewBox="0 0 256 256" xml:space="preserve">
<desc>Created with Fabric.js 1.7.22</desc>
<defs>
</defs>
<g transform="translate(128 128) scale(0.72 0.72)" style="">
	<g style="stroke: none; stroke-width: 0; stroke-dasharray: none; stroke-linecap: butt; stroke-linejoin: miter; stroke-miterlimit: 10; fill: none; fill-rule: nonzero; opacity: 1;" transform="translate(-175.05 -175.05) scale(3.89 3.89)" >
	<rect x="30.71" y="7.52" rx="0" ry="0" width="48.47" height="16.11" style="stroke: none; stroke-width: 1; stroke-dasharray: none; stroke-linecap: butt; stroke-linejoin: miter; stroke-miterlimit: 10; fill: rgb(240,188,94); fill-rule: nonzero; opacity: 1;" transform=" matrix(1 0 0 1 0 0) "/>
	<rect x="69" y="50.81" rx="0" ry="0" width="10.38" height="31.39" style="stroke: none; stroke-width: 1; stroke-dasharray: none; stroke-linecap: butt; stroke-linejoin: miter; stroke-miterlimit: 10; fill: rgb(240,188,94); fill-rule: nonzero; opacity: 1;" transform=" matrix(1 0 0 1 0 0) "/>
	<path d="M 24.183 49.243 c -10.979 0 -19.878 8.9 -19.878 19.878 C 4.304 80.1 13.204 89 24.183 89 c 10.979 0 19.878 -8.9 19.878 -19.878 C 44.061 58.143 35.161 49.243 24.183 49.243 z M 24.183 83.622 c -8.008 0 -14.5 -6.492 -14.5 -14.5 c 0 -8.008 6.492 -14.5 14.5 -14.5 c 8.008 0 14.5 6.492 14.5 14.5 C 38.683 77.13 32.191 83.622 24.183 83.622 z" style="stroke: none; stroke-width: 1; stroke-dasharray: none; stroke-linecap: butt; stroke-linejoin: miter; stroke-miterlimit: 10; fill: rgb(240,188,94); fill-rule: nonzero; opacity: 1;" transform=" matrix(1 0 0 1 0 0) " stroke-linecap="round" />
	<path d="M 85.695 90 H 24.183 c -0.552 0 -1 -0.447 -1 -1 s 0.448 -1 1 -1 h 60.513 V 2 H 25.183 v 47.243 c 0 0.553 -0.448 1 -1 1 s -1 -0.447 -1 -1 V 1 c 0 -0.552 0.448 -1 1 -1 h 61.513 c 0.553 0 1 0.448 1 1 v 88 C 86.695 89.553 86.248 90 85.695 90 z" style="stroke: none; stroke-width: 1; stroke-dasharray: none; stroke-linecap: butt; stroke-linejoin: miter; stroke-miterlimit: 10; fill: rgb(0,0,0); fill-rule: nonzero; opacity: 1;" transform=" matrix(1 0 0 1 0 0) " stroke-linecap="round" />
	<path d="M 79.173 24.635 H 30.706 c -0.552 0 -1 -0.448 -1 -1 V 7.523 c 0 -0.552 0.448 -1 1 -1 h 48.467 c 0.553 0 1 0.448 1 1 v 16.112 C 80.173 24.188 79.726 24.635 79.173 24.635 z M 31.706 22.635 h 46.467 V 8.523 H 31.706 V 22.635 z" style="stroke: none; stroke-width: 1; stroke-dasharray: none; stroke-linecap: butt; stroke-linejoin: miter; stroke-miterlimit: 10; fill: rgb(0,0,0); fill-rule: nonzero; opacity: 1;" transform=" matrix(1 0 0 1 0 0) " stroke-linecap="round" />
	<path d="M 41.081 44.665 H 30.706 c -0.552 0 -1 -0.448 -1 -1 V 31.541 c 0 -0.552 0.448 -1 1 -1 h 10.375 c 0.552 0 1 0.448 1 1 v 12.125 C 42.081 44.217 41.633 44.665 41.081 44.665 z M 31.706 42.665 h 8.375 V 32.541 h -8.375 V 42.665 z" style="stroke: none; stroke-width: 1; stroke-dasharray: none; stroke-linecap: butt; stroke-linejoin: miter; stroke-miterlimit: 10; fill: rgb(0,0,0); fill-rule: nonzero; opacity: 1;" transform=" matrix(1 0 0 1 0 0) " stroke-linecap="round" />
	<path d="M 60.127 44.665 H 49.752 c -0.553 0 -1 -0.448 -1 -1 V 31.541 c 0 -0.552 0.447 -1 1 -1 h 10.375 c 0.553 0 1 0.448 1 1 v 12.125 C 61.127 44.217 60.68 44.665 60.127 44.665 z M 50.752 42.665 h 8.375 V 32.541 h -8.375 V 42.665 z" style="stroke: none; stroke-width: 1; stroke-dasharray: none; stroke-linecap: butt; stroke-linejoin: miter; stroke-miterlimit: 10; fill: rgb(0,0,0); fill-rule: nonzero; opacity: 1;" transform=" matrix(1 0 0 1 0 0) " stroke-linecap="round" />
	<path d="M 79.378 44.665 H 69.003 c -0.553 0 -1 -0.448 -1 -1 V 31.541 c 0 -0.552 0.447 -1 1 -1 h 10.375 c 0.553 0 1 0.448 1 1 v 12.125 C 80.378 44.217 79.931 44.665 79.378 44.665 z M 70.003 42.665 h 8.375 V 32.541 h -8.375 V 42.665 z" style="stroke: none; stroke-width: 1; stroke-dasharray: none; stroke-linecap: butt; stroke-linejoin: miter; stroke-miterlimit: 10; fill: rgb(0,0,0); fill-rule: nonzero; opacity: 1;" transform=" matrix(1 0 0 1 0 0) " stroke-linecap="round" />
	<path d="M 60.127 63.936 H 49.752 c -0.553 0 -1 -0.447 -1 -1 V 50.812 c 0 -0.553 0.447 -1 1 -1 h 10.375 c 0.553 0 1 0.447 1 1 v 12.124 C 61.127 63.488 60.68 63.936 60.127 63.936 z M 50.752 61.936 h 8.375 V 51.812 h -8.375 V 61.936 z" style="stroke: none; stroke-width: 1; stroke-dasharray: none; stroke-linecap: butt; stroke-linejoin: miter; stroke-miterlimit: 10; fill: rgb(0,0,0); fill-rule: nonzero; opacity: 1;" transform=" matrix(1 0 0 1 0 0) " stroke-linecap="round" />
	<path d="M 60.127 83.206 H 49.752 c -0.553 0 -1 -0.447 -1 -1 V 70.082 c 0 -0.553 0.447 -1 1 -1 h 10.375 c 0.553 0 1 0.447 1 1 v 12.124 C 61.127 82.759 60.68 83.206 60.127 83.206 z M 50.752 81.206 h 8.375 V 71.082 h -8.375 V 81.206 z" style="stroke: none; stroke-width: 1; stroke-dasharray: none; stroke-linecap: butt; stroke-linejoin: miter; stroke-miterlimit: 10; fill: rgb(0,0,0); fill-rule: nonzero; opacity: 1;" transform=" matrix(1 0 0 1 0 0) " stroke-linecap="round" />
	<path d="M 79.378 83.206 H 69.003 c -0.553 0 -1 -0.447 -1 -1 V 50.812 c 0 -0.553 0.447 -1 1 -1 h 10.375 c 0.553 0 1 0.447 1 1 v 31.395 C 80.378 82.759 79.931 83.206 79.378 83.206 z M 70.003 81.206 h 8.375 V 51.812 h -8.375 V 81.206 z" style="stroke: none; stroke-width: 1; stroke-dasharray: none; stroke-linecap: butt; stroke-linejoin: miter; stroke-miterlimit: 10; fill: rgb(0,0,0); fill-rule: nonzero; opacity: 1;" transform=" matrix(1 0 0 1 0 0) " stroke-linecap="round" />
	<path d="M 24.183 84.621 c -8.547 0 -15.5 -6.953 -15.5 -15.5 s 6.953 -15.5 15.5 -15.5 c 2.959 0 5.836 0.837 8.322 2.422 c 0.466 0.296 0.603 0.915 0.306 1.38 c -0.297 0.468 -0.916 0.604 -1.381 0.306 c -2.163 -1.379 -4.669 -2.107 -7.247 -2.107 c -7.444 0 -13.5 6.056 -13.5 13.5 s 6.056 13.5 13.5 13.5 s 13.5 -6.056 13.5 -13.5 c 0 -3.146 -1.105 -6.208 -3.113 -8.623 c -0.353 -0.425 -0.295 -1.056 0.13 -1.409 c 0.424 -0.351 1.055 -0.293 1.408 0.13 c 2.305 2.774 3.575 6.291 3.575 9.902 C 39.683 77.668 32.729 84.621 24.183 84.621 z" style="stroke: none; stroke-width: 1; stroke-dasharray: none; stroke-linecap: butt; stroke-linejoin: miter; stroke-miterlimit: 10; fill: rgb(0,0,0); fill-rule: nonzero; opacity: 1;" transform=" matrix(1 0 0 1 0 0) " stroke-linecap="round" />
	<path d="M 24.183 90 C 12.67 90 3.304 80.634 3.304 69.121 c 0 -11.512 9.366 -20.878 20.878 -20.878 s 20.878 9.366 20.878 20.878 C 45.061 80.634 35.695 90 24.183 90 z M 24.183 50.243 c -10.41 0 -18.878 8.469 -18.878 18.878 C 5.304 79.531 13.773 88 24.183 88 s 18.878 -8.469 18.878 -18.879 C 43.061 58.712 34.592 50.243 24.183 50.243 z" style="stroke: none; stroke-width: 1; stroke-dasharray: none; stroke-linecap: butt; stroke-linejoin: miter; stroke-miterlimit: 10; fill: rgb(0,0,0); fill-rule: nonzero; opacity: 1;" transform=" matrix(1 0 0 1 0 0) " stroke-linecap="round" />
	<path d="M 24.466 76.627 c -4.139 0 -7.505 -3.367 -7.505 -7.506 s 3.367 -7.505 7.505 -7.505 c 1.866 0 3.655 0.689 5.038 1.942 c 0.409 0.371 0.44 1.003 0.07 1.413 c -0.371 0.408 -1.003 0.439 -1.413 0.069 c -1.014 -0.919 -2.326 -1.425 -3.695 -1.425 c -3.036 0 -5.505 2.47 -5.505 5.505 c 0 3.036 2.47 5.506 5.505 5.506 c 1.369 0 2.681 -0.506 3.695 -1.425 c 0.41 -0.369 1.042 -0.34 1.413 0.069 c 0.371 0.41 0.339 1.042 -0.07 1.413 C 28.121 75.938 26.332 76.627 24.466 76.627 z" style="stroke: none; stroke-width: 1; stroke-dasharray: none; stroke-linecap: butt; stroke-linejoin: miter; stroke-miterlimit: 10; fill: rgb(0,0,0); fill-rule: nonzero; opacity: 1;" transform=" matrix(1 0 0 1 0 0) " stroke-linecap="round" />
	<path d="M 24.466 63.616 c -0.552 0 -1 -0.447 -1 -1 v -2.495 c 0 -0.553 0.448 -1 1 -1 s 1 0.447 1 1 v 2.495 C 25.466 63.169 25.018 63.616 24.466 63.616 z" style="stroke: none; stroke-width: 1; stroke-dasharray: none; stroke-linecap: butt; stroke-linejoin: miter; stroke-miterlimit: 10; fill: rgb(0,0,0); fill-rule: nonzero; opacity: 1;" transform=" matrix(1 0 0 1 0 0) " stroke-linecap="round" />
	<path d="M 24.466 79.121 c -0.552 0 -1 -0.447 -1 -1 v -2.494 c 0 -0.553 0.448 -1 1 -1 s 1 0.447 1 1 v 2.494 C 25.466 78.674 25.018 79.121 24.466 79.121 z" style="stroke: none; stroke-width: 1; stroke-dasharray: none; stroke-linecap: butt; stroke-linejoin: miter; stroke-miterlimit: 10; fill: rgb(0,0,0); fill-rule: nonzero; opacity: 1;" transform=" matrix(1 0 0 1 0 0) " stroke-linecap="round" />
</g>
</g>
</svg>