<svg xmlns="http://www.w3.org/2000/svg" xml:space="preserve" width="256" height="256"><g style="stroke:none;stroke-width:0;stroke-dasharray:none;stroke-linecap:butt;stroke-linejoin:miter;stroke-miterlimit:10;fill:none;fill-rule:nonzero;opacity:1"><path d="M82 25.64H38.75a8 8 0 0 1 0-16H82a8 8 0 0 1 0 16z" style="stroke:none;stroke-width:1;stroke-dasharray:none;stroke-linecap:butt;stroke-linejoin:miter;stroke-miterlimit:10;fill:#29abe2;fill-rule:nonzero;opacity:1" transform="translate(1.964 1.964) scale(2.8008)"/><path d="M9.25 25.64H8a8 8 0 0 1 0-16h1.25a8 8 0 0 1 0 16z" style="stroke:none;stroke-width:1;stroke-dasharray:none;stroke-linecap:butt;stroke-linejoin:miter;stroke-miterlimit:10;fill:#ce7d1d;fill-rule:nonzero;opacity:1" transform="translate(1.964 1.964) scale(2.8008)"/><path d="M82 53H8a8 8 0 0 1 0-16h74a8 8 0 0 1 0 16zm0 27.36H8a8 8 0 0 1 0-16h74a8 8 0 1 1 0 16z" style="stroke:none;stroke-width:1;stroke-dasharray:none;stroke-linecap:butt;stroke-linejoin:miter;stroke-miterlimit:10;fill:#29abe2;fill-rule:nonzero;opacity:1" transform="translate(1.964 1.964) scale(2.8008)"/></g></svg>