<svg xmlns="http://www.w3.org/2000/svg" xmlns:xlink="http://www.w3.org/1999/xlink" version="1.1" width="256" height="256" viewBox="0 0 256 256" xml:space="preserve">
<desc>Created with Fabric.js 1.7.22</desc>
<defs>
</defs>
<g transform="translate(128 128) scale(0.72 0.72)" style="">
	<g style="stroke: none; stroke-width: 0; stroke-dasharray: none; stroke-linecap: butt; stroke-linejoin: miter; stroke-miterlimit: 10; fill: none; fill-rule: nonzero; opacity: 1;" transform="translate(-175.05 -175.05) scale(3.89 3.89)" >
	<path d="M 64.415 28.063 c -1.345 0.432 -2.662 0.903 -3.943 1.403 c 0.121 -0.401 0.24 -0.806 0.355 -1.214 c 1.735 -6.137 2.554 -12.262 2.278 -17.027 c -0.277 -4.765 -1.627 -7.78 -3.753 -8.381 c -4.428 -1.252 -10.946 8.092 -14.559 20.873 c -0.002 0.006 -0.003 0.012 -0.005 0.018 c -0.135 -0.338 -0.274 -0.677 -0.416 -1.017 c -2.462 -5.884 -5.634 -11.187 -8.816 -14.744 S 29.44 2.897 27.402 3.75 c -4.245 1.777 -3.529 13.149 1.599 25.401 c 0.176 0.421 0.357 0.837 0.54 1.252 c -1.264 -0.515 -2.578 -1.006 -3.933 -1.464 c -6.041 -2.044 -12.116 -3.172 -16.889 -3.136 c -4.773 0.035 -7.852 1.232 -8.56 3.325 c -1.475 4.36 7.527 11.344 20.107 15.599 c 0.003 0.001 0.006 0.002 0.008 0.003 c -0.205 0.087 -0.41 0.176 -0.616 0.266 c -5.844 2.555 -11.097 5.809 -14.603 9.047 c -3.506 3.238 -4.979 6.195 -4.093 8.22 c 1.844 4.217 13.203 3.323 25.372 -1.997 c 0.727 -0.318 1.445 -0.647 2.151 -0.985 c -0.271 0.795 -0.531 1.607 -0.779 2.433 c -1.832 6.109 -2.748 12.22 -2.546 16.989 c 0.201 4.769 1.504 7.805 3.621 8.439 c 4.307 1.292 10.77 -7.504 14.623 -19.777 c 1.881 5.317 4.314 10.118 6.876 13.528 c 2.867 3.816 5.66 5.58 7.764 4.904 c 4.153 -1.334 4.601 -11.64 1.176 -23.48 c 4.568 3.194 9.275 5.659 13.297 6.941 c 4.547 1.449 7.846 1.269 9.169 -0.5 c 2.756 -3.685 -3.633 -13.119 -14.269 -21.072 c -1.069 -0.8 -2.153 -1.559 -3.239 -2.277 c 1.735 -0.405 3.522 -0.898 5.334 -1.481 c 6.072 -1.951 11.627 -4.657 15.443 -7.524 c 3.816 -2.867 5.58 -5.66 4.904 -7.764 C 88.451 24.26 77.06 24.001 64.415 28.063 z" style="stroke: none; stroke-width: 1; stroke-dasharray: none; stroke-linecap: butt; stroke-linejoin: miter; stroke-miterlimit: 10; fill: rgb(150,149,225); fill-rule: nonzero; opacity: 1;" transform=" matrix(1 0 0 1 0 0) " stroke-linecap="round" />
	<circle cx="44.998" cy="44.998" r="8.588" style="stroke: none; stroke-width: 1; stroke-dasharray: none; stroke-linecap: butt; stroke-linejoin: miter; stroke-miterlimit: 10; fill: rgb(238,207,85); fill-rule: nonzero; opacity: 1;" transform="  matrix(1 0 0 1 0 0) "/>
</g>
</g>
</svg>